<svg xmlns="http://www.w3.org/2000/svg" viewBox="0 0 256.07 175.5"><title>hardy-hedgehog</title><g id="Layer_2" data-name="Layer 2"><g id="Layer_1-2" data-name="Layer 1"><path d="M54.1,159.38c-1.47,3,3.2,6.9.51,9.42-1.59,1.47-5.09,1.23-6.48.37-4.59-2.84-1.35-3.54-1-6.87.36-3.54-3,1.19-1.52-3.7a14.25,14.25,0,0,0-1.18.9c-.42.36-2,4.48-3.85,3.55-.6-.29.84-3.16,1.33-3.4-1.15-.16-3.77,4.23-3.79,4.21-.83-1.38,1.49-6.13,2.47-7.06.71-.68,6.44-3.49,6.76-3.09.73.93-5.78,2.91-5.81,4-.06,1.86,7.29-2.39,8-2.92,3.83-2.67,6.35-6.88,10.41-8.95,4.22-2.16,9.18-2.86,13.81-4-.91.22-2.19-7.75-5.06-5.25.77.19,1.06.54.87,1-4.94.29-8,2-12.47,4.17-.79.38-8,4.8-7.85,5.16a3.37,3.37,0,0,1,.58-1.52c-2,1.7-4.57,2.4-6.51,4.25s-4,3.24-5.78,4.93c-.87.83-4.89,8.64-4.3,9.1-2.22-1.74,1.85-9.18,3.31-10.27,2-1.48,4-1.79,5.77-3.79,1.14-1.26,2-2.81,3.46-3.77,4.82-3.21,14.13-4.16,17.37-9.41-.25-.11-4,.59-4,.07,0-1.71,5.2-.79,6.16-1.45-2.89-2.85-23,6.26-22.34,7.78-1.4-3.16,16.83-8.75,18.91-10.69-.63.59-5.05.33-5.06-.75,0-1.8,4.28-.71,5.18-1.82a19.64,19.64,0,0,0-6.26-.38c1.3-.45-2-.21-2.43-.11a18.49,18.49,0,0,0-5.5,2.25s-4.74,4.91-5.4,3.5c-1.06-2.31,14-9,14.78-7.63-.26-.44-1.58,0-1.82.23-.93-3,7.4-.17,8.1-1,1.15-1.36-6.15-3.53-6.34-3.44,1.82-.86,10.18,3.5,10.19,2.87,0-1.73-5.28-3.25-5.08-4.53.09-.56,5.15,3.32,5.64,3.56.81.41,9.67,1.66,9.13,2.2-1.67,1.67-7-2.09-9-.41-1.49,1.24.45,3.13,1.92,3.43s4.88-2.68,6.23-.67c.12.18-5.67,1.45-6.08,1.88-3.67,3.88,3.67,2,3.84,3,.1.61-2.38.89-2.46,2.16s2.5,3.76,3.38,4.53c4,3.51,7.07,2,11.61,1.71,5.61-.42,8.8,1.24,12.24-4.33.43-.7,2.27-3.28,2.08-4.13s-3.64-2.24-3.49-2.57c.37-.78,4.24,1.15,5,.9.5-.16,2.45-2.62,2.18-2.78-.59-.37-1.18.77-1.65.36s.34-1-.63-1.38-5.62-1-5.6-2.19c0,.18,4.13-.38,4.66-1.58,1.22-2.72-1.32-.39-2.39-1.21-1.85-1.41,5.66-4.44,6.08-4.81-.94.82-4.29,2.37-3.26,3.74.8,1.07,4.66-1.67,5.7-1.41-1.61,2.75-2.22,1.2.93,2.46,2.68,1.07,5.29,3,7.76,4.47,1.13.68,12.82,7.7,12.06,9.57-.09.2-7-5.23-7.67-5.67s-8.26-3.76-8.33-3.45c.12-.53,1.56-.18,1.87-.55s-6.43-3.39-6.26-.11c.07,1.37,6.72,1.23,6.34,2.62-.2.71-4.08-.79-4.16,0-.2,1.72,7.77,4,9,4.92.51.42,7.87,8,7.54,8.33s-9.18-7.34-9.79-7.82c-3.39-2.66-8.32-4.65-12.5-1.95.83.28,4.19-.33,4.4,1.08,0,.07-1.84.28-1.95.38-1,1.08,10.53,4.66,10.39,5.85-.06.53-3.8-1.16-3.85-1.12-.71.69,8.85,6.92,7.67,8.57.26-.36-16-17.28-20.89-10.55-2,2.82.37,2.61,2.59,3.17a59,59,0,0,1,9.41,3.13c1.54.68,13.36,8.2,12.52,10.21-.33.8-7.67-7-9.09-7,1.31,5.45-3.94,8.46-8.21,11.84-2.53,2-4.25,2.51-7.19,3.71-.47.19-5.15,2.93-2.76,4.37.14.08,2.13-1.23,2.81-1s.52,1.38.65,1.47c1.75,1.23,3.27,2.44,5.78.48,1.63-1.28,1.8-3.77,3.6-4.88,1.23-.75,3.92.12,4.23-1.87-.26.39-2.85,1.43-3.2,1.05.71-1.32,3.32-2.27,4.47-3.28.51-.45,3.3-2.85,3.33-2.6.13,1.14-2.65,3.4-3.4,4.09,1.77,1,3-2,5-3a3.1,3.1,0,0,1-1.26,2.15c.82.64,2.2-2.32,3-1.76,1.55,2.27-12.36,5.58-13,8.45.66.09,2-.38,2.64,0,1,.58.12,1.38,1.56,1.79,1,.28,6.78-.13,7.66-.76,1.15-.83,1.58-3.12,2.68-4.22a12.6,12.6,0,0,1,3.43-2.37c1.59-.64,1.81-1.43,1.5.27.61-.06,2.24-1.18,2.79-.64-.66-.65-4.65,3.54-5.08,4.09s-3.16,2.88-1.5,3.71c.9.45,2.43-1.15,3.55-1.2,1.5-.07,2.38,1.32,4,.85,1.21-.35,1.73-1.63,2.4-2.53.5-.68,3.7-5.4,3-6.21-.22-.26-3.14,2.9-3.68,2.92-2.08.09,2.18-3.07,2.46-3.66.32.3-2.9,3.4-3.6,3.17s1.34-1.86,1.47-2.12c1.07-2.18,1.11-.76.14-2.35-.3-.48-5.7-4.24-5.7-4.25,1-1,5.78,2.43,6.91,2.87a50.6,50.6,0,0,1,10.72,5.13c1.79,1.21,3.27,1.47,4.93,3.48.49.6,4.86,6.82,5.5,6.23-2.44,2.25-11.87-5-11.67-5.37,0-.06,5,5.55,5.46,4.57-1.85,4.46-9.64-10.15-10-10.68-.88,2.85,3.4,9.56,6.25,9.61-1.62,2.75-8.24-.45-9.4-2.42,1.12.56,1,2-.57.92,3.07,2.34-2.82,1.13-2.94,1.14a22.84,22.84,0,0,0-2.66.92c-1.22.37-1.38-.33-2.35.32s.83,1.73-.84,2.12c-.84.2-2.56-1.63-3.26-2-3.49-1.83-11.8-1.91-14.9,1.06a28.45,28.45,0,0,0-1.56,3.24c-2.26,1-.53-2.33-.58-3-.14-2.13.87-1.91-1.79-1.81-1.14,0-4.42.3-5.4.79-1.15.57-1.24,3.27-2.73,3.24s-2.44-4.11-2.61-5.22c-.41-2.82.53-4.76,3.33-5.89,1.49-.6,4.22,0,5.37-1.23.21-.22,2.75-8,2.82-7.92-.26-.41-2.44,4.57-2.43,4.83-3.42-2.08,2.35-3.47,1.16-5.47-.34-.58-2.64,2.89-3.13,2.82-.83-.12,1.49-3.66,1.58-3.63-1.75-.59-2.41,4.32-3.58,4.75.12-.05-3.88-.84-3.46-1.29-.16.3-.37.41-.64.33-.82-1.13,2-4.53,1.42-5.23,0-.05-4.9,6.08-5.84,5.74-1.71-.62,8.15-12.23,4.94-13.62,1.49.64-5.49,12.59-6,12.11-1.84-1.77,3.55-8.33,2.46-10.57-2.39,1.6-2,10.95-5.52,10.81-.74,0,2.88-6.38,3.29-7.54,1-2.81.82-4.3-1.17-1.25-.66,1-4,10.5-5,10-.65-.3.13-1.23-.43-1.64,0,0-2.43,2.13-3,1.92-1.4-.51-.13-2.76-.15-3.88-1,.87-.77,3.3-2.43,3.46.06-.68,1-2.56.4-3.14-.44-.41-3.53,5.8-.36,3.09-.46,1.37-2,1-2.6,1.89-1.13,1.65-.16,1.55-.7,3.21a23.11,23.11,0,0,1-1.33,3c-.27.59-1.11,3.88-1.36,4.17-1.88,2.19-4.06-.12-6.35-.69a5.46,5.46,0,0,0-2.2-.43c-.88.1-1.37,2-2.48,1.21.52.37,2.06-3.13,2-3.66-.1-1-2.5-4.6-3.14-5.28a43.63,43.63,0,0,0,1.68,4.45c-2.29,1-3.55-10.5-2.9-11.57-.48.79.93,4.89,1.47,5.33,2.5,2,.38-1.54,1.17-1.38,1.77.37,2.9,6.83,3.4,8.22s1.21,4,3.43,3.46c2-.48.27-.92.56-2.24.44-2-1.5-1.73,1.41-2.44,1.76-.44,4,1,3-2.25-.14-.49-6-6.38-3.74-5.75-1.49-1.12-2.39-3.28-2.91-5-.37-1.2-.11-3.69-1-4.63-2.78-3-8.21,2.5-10.06,4.4-2.51,2.59-7.11,5.34-8.18,8.69-.19.58-1.07,7-.53,7.35,1.58.87,1.37-3.81,3.23-2.17.63.55-1.31,6.44,2.06,3.89C54.47,166.94,51.82,158.45,54.1,159.38Zm95.66,7.73c-.2,0,.29.27.6.61A1.23,1.23,0,0,1,149.76,167.11Zm-24-3.51C125.64,163.86,125.79,163.44,125.73,163.6Zm18.18.55C144,164.15,143.91,164.14,143.91,164.15Zm3.39.57c0-.15-.74-1.45-.92-1.38a25.83,25.83,0,0,0,2.12,2.52A3.28,3.28,0,0,0,147.3,164.72Zm-41-36.21C106.29,128.57,106.52,128.46,106.32,128.51Zm6.24,24.86c-.12,0,2-1.77,1.27-2C114,151.42,112.66,153.3,112.56,153.37Zm-3.75.57a11.56,11.56,0,0,1-1.17,1.08C107.77,154.87,109,153.73,108.81,153.94Zm2.87,1C111.64,154.88,111.75,154.75,111.68,154.93ZM145,163a1.94,1.94,0,0,0,1,2c-.11-.2-1.58-3.35-1.9-3.21C144.34,161.7,144.73,163,145,163ZM94.93,151.84C95,152,94.94,151.8,94.93,151.84Zm4.95-.92c-.34,1.46-1.95,1.43-1.87,3.08A6.2,6.2,0,0,0,99.88,150.92Zm-29.7.09q-.6,0-.18.45C70.16,151.49,70.34,150.73,70.18,151Zm10.16-.19c.83-.32,3.62-5.83,3.14-5.93C82.52,144.67,80.73,150.33,80.34,150.82Zm-11.21-4.33a4.36,4.36,0,0,0,.66-.93C68.9,145.53,69.29,147.46,69.13,146.49Zm12.24-.94c-.44.32-2.38,4.6-3.08,5.7-.33.5-4.12,6.49-4,7.17,0-.21,1.87-1.15,2-1.33s.88-2.7.93-2.8C78.65,151.4,81,148.89,81.37,145.55ZM74,144.12c-.6.53-2.88,3.94-2,4.78C72.22,149.16,74,144.17,74,144.12Zm-1.88,13.66c-.27.06.61.31.61.35A1.21,1.21,0,0,0,72.12,157.78Zm3.24-6.52a.45.45,0,0,0,.54-.51C75.44,150.24,75.35,153.22,75.36,151.26Zm17.74-.82c.47-.38,2.33-6.48,1.82-6.52C94.74,143.91,93.11,150.37,93.1,150.44Zm10.37,1.12.65-1C104.23,150,103.38,151.77,103.47,151.56Zm3.46-19,1.1-.31a16.78,16.78,0,0,0-2.17.45Zm.54,15.22a1.16,1.16,0,0,0-.85,1.13c.93-.41.29-1.68.78-2ZM152.27,169a3.3,3.3,0,0,0,2,1.58A8.4,8.4,0,0,0,152.27,169Zm-9.38-6.69c0-.16.32-2-.55-2C141.76,160.28,142.9,162.34,142.89,162.32ZM66.78,129c-.48,1.56-.16-3-2-1.66C64.31,127.68,66.46,128.94,66.78,129Zm38.46,7.42c-.15,0-2.06-2.18-3.26-.27C102.67,136.5,104.55,136.35,105.24,136.39ZM102.86,149c1-.68,3-4.13,2.14-5.25.66.85-4.69,10.91-5.87,11.39C102,154,102.12,151.6,102.86,149ZM100,147.55c.54-.5,2.53-4.57,1.27-5.12C100.6,142.15,100,147.26,100,147.55Zm-14.71,5.81c1.44-.72,4.6-7.13,4.21-8.79C87.78,145.82,85.29,151.66,85.27,153.36Zm24.31-3.1c4.5.24.82-8.51-.52-4.36,2.33.63,1.36,3,.5,4.4C109.53,150.78,109.53,150.77,109.58,150.26Zm-38.48,3.4c0,1.07,1.22,3.4,2.33,2.67.38-.25.61-3.34.69-3.76.2-1.14,2.27-9.13,2.31-9.13-3.64-.44-1.86,10.12-4.31,11.19-1,.42.59-4,0-4.3C71.67,150.1,71.17,153.35,71.1,153.66Zm12.25.72c.58-.21,4.79-10.18,4.43-10.23C86.21,144,82.82,154.38,83.35,154.38ZM97,149.89c1.33-.55,4-6.68,2.54-7.43C99.36,142.38,96.42,149.51,97,149.89Zm8.67-25.28c-.78-2.08-4.7,1.12-4.41,2.44C101.61,128.72,105.54,125.29,105.64,124.61ZM86,144.35c-.89-.73-4.33,6.14-4,7.07C82,151.22,85.94,145.73,86,144.35Zm23.24-18.59c-1.45-1.33-5.93.83-5.22,2.36C104.13,128.33,109.15,126.34,109.25,125.76Zm30.3,39.9c-1.18.73,2.25,3.62,3.22,3.27S140.11,165.77,139.55,165.66Zm-38.08-17.92c-.21,1.41,3.28-5.23,1.81-5.18S101.69,146.87,101.47,147.74Zm3.75-.72c-.08.22-.79,1.62-.53,1.83C106,149.87,107.54,139.91,105.22,147Zm-35.39,1.16c-.46,1.35,3.63-4.29,2.81-4.54S70,147.6,69.83,148.18Zm6.57.16c.4,0,2.62-3.56,1.9-4S76,147.62,76.4,148.34Zm1.54,1.23c1-.29,2.34-3.88,2-4.64S77.52,149.77,77.94,149.57ZM111,153.49c-.74-.67-2.81,2.5-2.46,2.85C109.17,157,111,154.07,111,153.49Zm-1.84-6c-.63-.72-1.8,2.64-1.38,3.05C108.44,151.2,109.2,147.78,109.18,147.54ZM63.86,133.86a2,2,0,0,0,1.53-.25c-.14.15-2.07-1.34-2.42.09Zm76,27.63c-.77.18-.09,2.34.34,2.18C141.05,163.36,140.11,161.91,139.85,161.49Zm-32.19-30.23C107.63,130.85,107.13,131.26,107.66,131.26ZM58.4,128.34C58.1,128,58,128.5,58.4,128.34Zm8.28,7.8c-.08-.22-.24-.24-.49-.06C66.27,136.3,66.43,136.32,66.68,136.14Zm10.2,15c0-.41-.3-.26-.26-.14C76.69,151.41,76.78,151.45,76.88,151.17Zm62.3,7.45a.48.48,0,0,0-.48.43C138.77,159.36,139.59,159.1,139.18,158.62Zm-.84,6.06C138.14,164.49,138.29,164.63,138.34,164.68Z"/><path d="M148.79,85.1c-2.44-1-1.47-1.75-3.88.46.48-5.28,5.47-9,4.64-14.88-1.52.65-3.05,8.36-4,9.93A62.91,62.91,0,0,1,141,85.23c.12-.89,3.57-2.75,1.07-3-.84-.09-2.89,3-3.52,2.59,1.11.7,9.27-14.91,7.58-17.67-3,1.89-4.84,15.16-8.4,15.26.27,0,.09-4.53-.14-4.46-1.52.44-.25,4.67-.94,5.71S133,86.05,131.71,86c.65-1.81,2.61-1.77,3.65-3.12a8.23,8.23,0,0,0,1.17-3.1c.32-1,2.08-6.1,1.27-7,0,0-5,9.57-5.69,9.58a.54.54,0,0,1-.22-.88c-1,.86-5.88,4.94-7.27,3.87-.21-.16,4.39-3.23,4.73-3.47a14,14,0,0,0,5.33-6.16c-1.59,2.29-2.93,4.83-6.08,2.58-.68-.48-1,.21-1.41-1.4-.1-.42,1.2-3.32.75-3.52-.32.06-.63.13-.94.21.16,0,3.54-8.06,4.9-7.39a.81.81,0,0,1,.25.87c4.24-8.1,19.49-13.55,21.18-.75.58,4.46-.05,9.65-.05,14.17,0,.74-2.22,8.39-2.8,7.91,2.38,1.95,5.58-13.47,5.74-14.48.68-4.09.67-5.73,3.92-1.66,1.16,1.46,7.22,6.49,7,8.38.08-.69-4.5-4-5.16-4.74s-3.64-5.68-4.5-3.73c-1.33,3,10.5,8.82,9.64,10.34-.62,1.09-8.23-6.49-9.12-7.22,4.5,5.52,8,10.41,13.84,14.58,1.14.81,11.61,9.58,8.05,10.45-.9.21-3.52-3.61-4-4.19A37.59,37.59,0,0,0,168.09,89c-2.82-1.76-4.74-3-6.74-5.69-.25-.34-4.55-5.61-4.75-4.84-1.15,4.56,8.18,8.89,8.29,13.48-1.09,1.09-8.14-9.27-9.06-9.06-.61.14,4.2,6.22,4,6.44a1.19,1.19,0,0,1-1.29-.4c.46,1.69,2.55,3.07,2.44,5-4.1-1.26-3.06-8-6.1-9.3a20.42,20.42,0,0,0,1,3.63c1.55,2.94,4.2,5,5.9,7.67.78,1.19,1,2.81,2.11,4.2s2.3,2.61,3.42,3.94c1.42,1.7,4.26,4.28,4.09,6.68-3.24-1.55-7-6.52-9.28-9.27-2.71-3.32-4.55-7.26-7.15-10.61-2.39-3.1-2.45-2-1.45,1.14.38,1.17,1.51,2.54-.05,2.85s-2.17-2.29-2.35-2.5c-.49-.28.12,2.27-.07,2.49.24-.27-5.53-4.12-5.25-4.31,1.25-.83,2.23,1.37,3.39,1.2.38-.06,2.12-1.66,1.67-1.87-1.3-.6-1.81,2.87-2.26,0-.33-2.07,2.15-2.82,2.61-4.81-.92.36-1.86,1.46-2.79,1.66-.29.07,1.41-3,.95-2.14ZM138.06,69.45a3.61,3.61,0,0,0-1.28,1.27C136.86,70.32,138,69.14,138.06,69.45Zm-2.39,1c-1.26,1.09-4.33,3.26-3.67,5.21C133.48,74.63,134.71,71.39,135.67,70.42Zm-3.45.54c-1.06.13-1.24,2.31-1.67,2.22,0,0,4.09-5.29,4.73-4.69C134.9,68.13,132.25,70.4,132.22,71Zm1,.43c-.28.09-1.4,1.13-1.2,1.3C131.86,72.57,133.75,71.12,133.2,71.39Zm44.89,26c-2-1.71-2.75-4.38-5.46-5.48C174.05,93.4,177.49,95.86,178.09,97.35Zm-11.3,7.84c0-1-5.15-7.74-5.93-7.27-.24.14,5.8,7.11,6.69,7.71A1.11,1.11,0,0,1,166.79,105.19Zm-10.61-14.8a30.58,30.58,0,0,0-2-3.33c.08.39,2.1,4.58,2.43,4.57ZM145.3,78.15a1.86,1.86,0,0,1-.46,1.11C145.12,78.83,145.65,78,145.3,78.15Zm3.53-11.67c-.13-.26.11.59.22.42S149.08,66.53,148.83,66.48Zm-6.48-1.6c.8-.31,2-2.45,1.39-3.26C143.9,61.84,142.13,65.83,142.35,64.88Zm-2.29,8.56c-.73.51-1,2.29-1.25,3.06C139.25,75.66,140.08,72.17,140.06,73.44Zm11,4.53c1.16-.9-.2-3.45.83-4.1-1.59,1,.48,4.35-.8,5.28Zm-7.74-9.15c2.14-.38,1.6-4.2,1.63-5.64.35.83-.55,3-.78,3.69C143.87,67.85,143.65,69.56,143.32,68.82Zm-3.8-7.17c-1.25,0-3.18,3.54-3.07,4.61.13,1.28,2.38,2.56,2.51.68C136,67.35,139.17,62.65,139.52,61.65Zm11,2.41c-.15,1.32-.78,3.12-.1,4.36C151.22,67.42,150.75,65.2,150.54,64.06Zm-4.44.35c.34-1,.66-3.28.06-4.16C145.67,61,145.92,63.55,146.1,64.41Zm1.41-1.91c.33-.38.14-1.18.06-1.67A6.66,6.66,0,0,0,147.51,62.5Zm-12.08,3.86Z"/><path d="M152.22,166.14c-.79-5.37-2.3-6.91-7-9.48-.58-.32-7-3.74-6.3-4.45.89-.83,7.11,3.71,7.9,4.21a33.12,33.12,0,0,1,3.23,2.17c.79.64,3.7,5.67,4.33,5.86a1,1,0,0,1,.16-1.37c.22,0,1.42,1.39,1.49,1.27.62-1.12-3.46-3-2.08-4.4-.44.45,5.78,5.55,5.48,6.13.35-.67-3.35-3.15-2.76-4.09.86-1.37,4,2.27,4.89,2.68-.07-.38-1.82-2.83-1.26-3.21.31-.21,3.56,2.85,3.59,3.26,0-.31-1-1.55-.75-1.9.88-1.06,2.18,2.6,3.24,2.4.52-.78-3.24-2.08-2.25-3.13.35-.36,8.28,7.14,8.29,7.14,1.87-2.54-7.09-5-5.79-7.86.2-.43,2.42,2.27,2.64,2.47a37.43,37.43,0,0,1,4.47,4.95c2.36,2.93,7.72,7.29,11.79,5.39-1-2.16-4.27-2.6-5.79-4.34,1.05,1.2,1.55,2.37,3.34,2.56-1.58,1.83-8.25-4.53-9.12-5.92,1.74,1.33,3.5,5.8,6.21,5.41-1.37,2.58-7-4.68-7.73-5.57a38.1,38.1,0,0,0-4.35-5c-.68-.59-5.63-4.44-6.07-4.43,2,0,11.19,5.43,11.26,7.74-.05-1.67-4.66-7.52-6.37-7.6,2.09.09,2.15,1.22,4.06,3.09.55.54,4.95,3,4.95,3.3,0-.59-4.17-4.8-3.44-5.16.54-.25,5.56,4.66,6.12,5.17,1.14,1,3.94,5.59,5.19,5.38-1.28-.26-4-3.45-1.82-3.36.59,0,5.13,3.6,5.26,4.19-.7-3.18-12.95-7.22-10.93-10.91-.34.63,5.38,5,6.25,5a1.53,1.53,0,0,1-.47-1.21c1.34-.83,4.13,3.68,5.83,3.48,3.17-.37-1.19-2.58-1.68-3.19-3.48-4.41,5.79,3.85,7.1,2.75.32-.27-4.67-4.29-4.3-4.58.64-.51,3.69,2,4.12,2.27a25.88,25.88,0,0,0,5.12,2.38c1.08,1.17-2.09,1.78.77,2.63a7.22,7.22,0,0,0,0-1c.6-.16,5,2.87,5,2.59-.22.86-6.13-5.37-6.11-5.34-1.35-1.31-3.48-3.11-5.35-3.57-.46-.12-3.26.5-2.75-.6,6.73,0,12.85,5.87,18.93,8.31,4.45,1.78,8,2.06,12.66,2.08.7,0,6.61,1.51,6.71,1.29-.77,1.62-7.89.21-9.47.36-5.36.51-10.73,1-16,1.65-2.65.31-5.4,1-8.08.45-1.37-.28-3-1.64-4.38-1.46-3.73.5,2.51,1.42,3.71,1.39-1.83,2.29-6.86.64-9.29.65-3.81,0-7.51.57-11.34.08a24.77,24.77,0,0,1-9.28-2.68c-.53-.3-5.71-3.81-5.65-4-.46,1.31,4.41,4.42,5.63,4C163.79,175.12,153,166.88,152.22,166.14Zm48.85,4.8C201.09,171.2,201,170.85,201.07,170.94Zm-31.29.15c-.13.11-4-4.4-4.49-5A41.62,41.62,0,0,1,169.78,171.09Zm29.3-1.6C199.07,169.7,199,169.39,199.08,169.49Zm-36.63,0c1.58,1.59,3.68,2.22,5.63,3.21A61.63,61.63,0,0,1,161,168,2.77,2.77,0,0,0,162.45,169.49Zm26.93-1.92c.42.09.62.84.78,1.62C190.35,169.14,189.87,168,189.38,167.57Zm-21.49-1.07c.32,1.39,2.66,4,4,4C171,169.4,168.22,167,167.89,166.5Zm36,6C204.69,172.91,203.31,172.17,203.88,172.51Zm-15.53-.61C188.61,171.7,188.28,172.1,188.35,171.9Zm-13.17.55c.42.24.39.21-.1-.09S174.65,172.15,175.18,172.45Zm15.15-6.81c-.08-.06.38.57.41.31A.3.3,0,0,0,190.33,165.64Zm17.6,6.76c-.05.7-1-1.21-2.38-.65A4.23,4.23,0,0,0,207.93,172.4Zm-22.62-1.3c.36.15-.15-.63-.22-.59A.46.46,0,0,0,185.31,171.1Zm-1.44-5.83c-.2-.07.46.33.75.21A.58.58,0,0,0,183.87,165.27Zm-8.3-.5c2.1,0,2.22,2.89,4,3.28C179.08,166.25,177.43,164.15,175.57,164.77Zm25.49,7.65c-.17-.12-2.59-2.39-3.51-2C195.15,171.39,200.3,172.55,201.06,172.42Zm-8.26-.1c0-.76-5.36-5.73-5.93-5.64C187.28,166.61,190.33,172.42,192.8,172.32Zm19.81-.89c1-.28-3.44-1.88-3.92-2.08-1.82-.76-5.33-3.67-7.37-2.95.66-.23,3.51,2.44,4.29,2.83A21.89,21.89,0,0,0,212.61,171.43Zm-49.19-3.87c-2.66.26,1.47,1.54,1.66,1.47S164.12,167.32,163.42,167.56Zm32.34,2.07c-.15-.34-1.91-3-2.65-2.57C192.64,167.37,195.21,170.54,195.76,169.63Zm-.29,2.42c-.82.79,1.82,1.58,2.26,1C198,172.79,195.75,172.05,195.47,172.05Zm-22.61.49c-.07-.2-1.71-1.29-1.68-.83S172.45,173,172.86,172.54Zm23.85-6.12c-.33-.26-.5-.19-.5.2C196.5,166.92,196.66,166.85,196.71,166.42Zm14.23,5.79c-.25-.19-.42-.18-.52,0C210.67,172.45,210.84,172.44,210.94,172.21ZM157,168C157.67,167.6,156.43,167.75,157,168Z"/><path d="M26.24,75.31C26.07,69.88,24,64.52,26,59.14c2.06-5.57,7.14-5.76,11.68-3s7.42,7,10.41,11.11c.45.62,6.78,7,7.78,5.38-.16.26-7.34-.34-7.54-.39-.58-.14-1.14-1-1.77-1.2-.86-.3-1.81.29-2.72-.13-1.44-.66-1.84-3.31-3.61-3.39,1.25.06,3.29,3,4.15,3.8-1,1-2.47-.26-3-1,1.3,1,2.06,2.59,3.29,3.65.78.67,2.43,1,2.94,1.93,1.32,2.47-1.63.86-2.72,0C43,74.57,42,72.21,40.28,70.76c-.57-.46-2.81-2.13-3.57-1.83-2,.81.66,1.53-.35,2.55-1.52-1-2.84-3.2-4-4.26.23,1.47,7.76,9.81,7,10.61-1.26-.34-4.23-5.78-4.82-3.66-1,3.53,6.41,6.07,5.86,9.92-3.38.49-4.74-10.86-8.16-9.29.1,0,4.07,7,4.94,7.45-.94-.18-1.16-1.9-1.17-2.59,1.61,0,5.51,6.16,1.92,5.19C34.63,84,34,77.8,31.42,76c-1,2.52,2.48,5.47,3.11,7.68,0,0-.67-1.63-.06-1.4,1.2.47,4,5.86,2.18,6.07-1.07.13-2.17-2.84-2.63-3.53-.19-.28-3.09-3.1-3.1-3.13a30.28,30.28,0,0,0,1.92,3.23C30.33,85.91,27.09,76.51,26.24,75.31Zm4.37-13.22Zm9.31,1.4s2.08,2.44,2.24,2.17A12.66,12.66,0,0,1,39.92,63.49Zm0,1.48S39.87,64.7,39.89,65Zm3.4,2a11.33,11.33,0,0,0,1.65,1.52C44.57,69,43.86,67,43.29,67Zm2,0a11.18,11.18,0,0,1,1,1.57A4.13,4.13,0,0,0,45.3,67Zm-3.46.49C41.62,67.46,42,67.53,41.84,67.46Zm-3.91.4ZM49.17,70.3Zm-18,.41c.19,1-.5-.67-.6-.86C30.67,70,30.9,70.6,31.2,70.71Zm6.23-4.61c-1.39,0-2.73-3.1-4-3C34.83,63.63,36.68,65.94,37.43,66.1Zm2.34-4.82c.27-.35,4.42,2.46,4.21,3C44.35,63.33,40.57,61.24,39.77,61.28Zm-5.9-2c.32-.23-.27-.56-.66-.4A1.72,1.72,0,0,0,33.87,59.29Zm1.55,7.79c0,.12.09-1.86-.62-1.62C34.5,66.06,34.71,66.6,35.42,67.08ZM32.07,69.9c.77,0-1.63-3.18-1.6-3.58A6,6,0,0,0,32.07,69.9Zm-5.13,0c-.29-.12,1.63,5.44,2.23,4.68C29.53,74.13,27.61,70.35,26.94,69.91Zm.44-3.1c.26-.86.1-5-.74-5.47C26.06,61,27.21,66.44,27.38,66.81Zm7.17-5.68-1.36-.36c-.08,1.29,2.27,2,3,1.07C36.36,61.67,34.69,61.15,34.55,61.13Zm-1.93-6c-.64-.18-1.1-.06-1.36.36C31.3,56.34,36.46,56,32.62,55.13Zm-4,14.34a.47.47,0,0,0-.36-.65C27.89,69,28.23,70.59,28.62,69.47ZM35,57.75c-.59.32.51.69.68.36A.51.51,0,0,0,35,57.75Zm-4.62-.87c-.05-.39-.24-.48-.56-.26C29.91,57,30.1,57.09,30.42,56.88ZM26.38,68c-.14.32-.09.46.13.42C26.64,68.06,26.6,67.92,26.38,68Zm1.3-9C27.38,58.51,27.29,59.28,27.68,59ZM26,66.63C26,66.39,26,66.36,26,66.63Zm3.84,1.77C30.06,68.65,29.88,68.48,29.79,68.4Z"/><path d="M48.67,49.87c.09-.51-.76-2.48-.08-2.86.25-.14,2.7,5.67,3,6.37-.58-1.21-7-19.54-3.14-20.5,2.2-.55,3,9.42,3.26,10.72s1.77,11,3.19,11.36c-.64-.17.07-9.31-.91-9.54,1.32.31,2.43,5.86,2.63,7.13-.17-1-1.93-5.8-1-6.46-.81.57,10,21.22,11.86,22-1.6-.7-8.35-9.54-9.42-9.1-2.15.87,6.58,9.61,6.77,9.83-2.27,2.47-7.81-5.63-8.56-6.49S45.54,51.22,47.25,50.58c-2.36.88.12,7.15,1.1,8.4-.37-.93,2-1.6,2.45-2-.23.75-.19,5.9,1,5.82.19-.31.39-.61.59-.9.21,0,5.29,4.49,4,5.09-.17.07-1.22-.64-1.49-.55,0,0-1.65.76-1.63.77-2.07-.44-2.8-2.52-4.19-4-2.91-3-6.74-5-8.65-8.26-2.11-3.66-5.65-6.59-7.59-11.11-.3-.7-2.86-8.05-2.35-8,3.34.11,4.5,10.8,6.78,13.27.92,1,2,1.42,2.89,2.51s1.58,2.63,2.53,3.83c.44.56,3.7,4.73,4.32,4.28,1.32-.94-1.53-3.51-2.14-4.21-1.69-2-1.92-2.32-2.18-4.52.17,1.47,1.9,3.19,3.17,3.8.26-2.37-.61-5.68.08-7.87,0-.14,4.08,5.92,4.3,6C49.38,52.69,49.71,50.26,48.67,49.87Zm4.92,5.91c-.3-.44-.61-.87-.92-1.29,1.25-.18,1,3.86,2.43,3.65C55.59,57.16,54.09,56.29,53.59,55.78Zm5.88,2.4a25.91,25.91,0,0,1-2.15-3.85c-.15.13,2.06,4.85,2.5,5ZM50,41.32l-.08-1.1c-.17.43.78,2.09.55,2.34A1.52,1.52,0,0,0,50,41.32Zm1,3.55C51,44.36,50.6,44.81,51,44.87Z"/><path d="M71.22,108.61c-5.59-1.29-7.49,10.49-14.14,5.12-3.62-2.93-7.61-10.45-4.65-14.87C55,95,61.11,95.47,64.59,97.72c2.79,1.8,4.24,4.9,5.9,7.64C70.85,105.94,73.6,109.1,71.22,108.61Zm-5.41-1.7S65.93,107.1,65.81,106.91ZM55,109.46C54.79,109.28,55,109.47,55,109.46Zm.84,1.65c1.05-.1,2.3,3,4.84,2.52C59.72,113.12,56.84,110.91,55.87,111.11ZM59.23,99c.09,0,1-.36.57-.54C59,98.15,59.51,100.2,59.23,99Zm5.59.1c-.85-.77-3.25-2.65-5.06-2.14C60.25,97.67,63.91,99.06,64.82,99.1Zm-2,.62c-.58-.32-.57-.33,0,0-1,1.52-2.86,4.49-.49,5.31C65.44,106,67.21,100,62.83,99.72Zm-1.33,9.42c-1.88-7.22-1.65,1.2-.44,1A.76.76,0,0,0,61.5,109.14Zm8.56-1.78c-.51-1-1,.28-.61.47A.53.53,0,0,0,70.06,107.36Zm-15.84-2C54.43,105.36,54.2,105,54.22,105.38Zm14.27-.12a.44.44,0,0,0,0-.74A.45.45,0,0,0,68.49,105.26Z"/><path d="M91.26,139.63c.11-.46,6.55-6.81,4.66-7.47,1.54.54,1.68,4.45,1.27,5.74A6.6,6.6,0,0,1,92,142c-2.34.4-3.79-1-5.91-1-2.82,0-4.21,2.3-7.18.35a5.86,5.86,0,0,1-2.6-5.25c.06-1,.45-3.63,2-2.71.76.45.63,3.24,1.53,4.06.5.46.69-.71,1.31-.42a13.53,13.53,0,0,0,3,1.38c.93.26-3.49-8.1-3.48-6.94,0,1.54,2.63,2.91,2,4.61s-2.35-.13-3-1.22c-3.66-6.57,6.43-9.52,11-7.14,2.38,1.24,2.95,2.4,2.85,5,0,.72,0,2.32-.48,2.8-.92.83-1.73-.23-2-.1-1.33.66-1.86-1-1.6,1.43,0,.24,2.32,3.43,2,3.59Zm-7.89-9.1c-.38-.46-.85-1.37-1.49-1.23C82,129.53,83.55,130.89,83.37,130.53Zm.6,2.67c0,.51,0,.52,0,0-.07-.13-1.17-2-1.12-2S83.82,133.13,84,133.2Zm.29-3.2a8.5,8.5,0,0,0-1.14-2.12,15.08,15.08,0,0,1,3,2.6C88.44,128.83,79.82,125.67,84.26,130Zm5.28-1.73c-.74.75,2.06,1.94,2.35,1.46C92.37,128.94,89.71,128.29,89.54,128.27ZM88.12,128c-.27-.76-.85,0-1.05,0C87.08,128,88.21,129.12,88.12,128Zm5.42,11.36c-.45.22.06.6.31.72A.48.48,0,0,0,93.54,139.32Zm2.59-2.86c-.27,0-.28.1,0,.32C96.37,136.78,96.38,136.67,96.13,136.46Zm-10.46,2.48c-.27.05-.28.21,0,.49C85.59,139.37,86.26,139.64,85.67,138.94Z"/><path d="M119.1,102.05c.37,5-3.4,11-8.95,10.78-3.24-.13-4.84-2.49-7.22-4.25-.61-.45-4-1.8-4.06-2-.21-.86,3.17-2.68,3.94-3.48,2-2.07,3.18-4.88,5.47-6.68C112.89,92.83,119.1,96.18,119.1,102.05Zm-11.73-2.7c1.22-2.07,4.67-2.64,6.78-3.08C112.36,96.64,107.22,95.2,107.37,99.35Zm1.79,8.24c.29-.59,0,1,.21,1.92C109.15,108.69,109.92,108.44,109.16,107.59ZM116,98.32c0,.06-.28-1-.23-.34a7.64,7.64,0,0,0,.82,1.94c.28.69,1.56,2.62,1.31,3.39C118.42,101.62,118.23,98.62,116,98.32ZM108.75,103c.54,2.79,4.81,2.52,4.89-.18S108.74,100.35,108.75,103Zm-.59,5.26c-.48-3.13-1.7,1-.23.71A.73.73,0,0,0,108.16,108.29Zm-4.9-2.78c-.34-1.19-.94.44-.83.5C103,106.35,103.21,106.06,103.26,105.51Zm7.2,1.72C110.63,106.8,110.24,106.66,110.46,107.23Zm3-7.08c.12-.27.06-.42-.17-.43S113.17,100.23,113.44,100.15Z"/><path d="M166.72,61.73c-2.59-1.24-4.32-5.36-7.3-5.78-3.83-.53-.77,2.1.57,3.55,1.82,2,10.62,8.22,9.17,10.83.07-.13-5.47-4.26-5.66-4.42-2-1.67-4.68-4.08-6.65-1.76-2.14-2.21-1.7-5.79-4.56-7.37-.84-.47-6.16-2-6.95-1.38.76-.62,4.21-.11,3.87-1.81-.16-.75-6,1.4-6.61.44-.32-.49,3.58-1.44,3.84-1.47,2.33-.27,3.86.65,6.07,1.29s4.8.76,7.05,1.69c1.61.68,4.67,4,6.33,3.92a2.39,2.39,0,0,1-.64-.93c2.24-1.73,7.51,4.38,8.73,5.65.67.71,6,6.66,4.32,7-1,.19-3.93-4.84-4.44-5.39C172.8,64.65,168.24,60.47,166.72,61.73Zm-9.78-.94c.11-.79.93-1.33-.38-1.56a2.83,2.83,0,0,0,2.77,3C158.48,62.13,157.84,61,156.94,60.79Zm-3.79-5.38c-.3,0-.28.09.07.17S153.5,55.51,153.15,55.41Zm14,4.51Z"/><path d="M125.32,68c1.45-.51,1.85-2.73,2.74-3.79s2.27-2.06,3.22-3.16c1.57-1.83,2.89-4,4.43-5.85,1-1.18,8.38-8.59,8.82-7.67-.44.43,1.19-1.45,1.25-1,.09.75.23.39,1.12.56-.56,1.09-3.52,1.69-3.71,2.83.4-2.3,6-2.5,7.49-4.06-.39.41-2.16.27-2.35-.34.51-.93,4-1.61,4.3-.31.38,1.52-2.38,1.55-3.18,2.47,3.79,1.42,9.92-2,12.59,3.12,1.75,3.35-1.48,1.13-3.09.42-3.25-1.43-7-1.26-10.47-1.33-3.12-.07-4.51.49-7,2.79s-5.18,4.48-7.36,6.82a106.78,106.78,0,0,0-8,9s-2,3.63-2.58,2C122.91,68.48,125.19,69.45,125.32,68ZM160,50.4c-2.86.52-4.23-4-8.25-1.59A22.46,22.46,0,0,1,160,50.4Z"/><path d="M28.63,80.63c.18,1.06,3.32,7.45,2.6,8s-3.6-.67-4.12-1.24c-.94-1-1.08-3.81-1.33-5.11-.19-.94-1.29-10.21-2.71-9.92a3,3,0,0,0-.45,1.54A10.87,10.87,0,0,1,22,72c-2.43,2.46,2.57,7.11.18,9.23C19,78.82,20.37,70,20.76,66.49c.09-.8,1.3-10.27,2.26-9.72.41.23-.58,5.23-.27,5.17.91-.18.52-2,1.72-1.14.58.42.06,2,.08,2.6.09,2.69-.63,5-.15,7.78C24.6,72.32,28.92,82,28,82.69c.51-.38-.78-1.94-.06-2.24ZM23.58,69.92a.44.44,0,0,0,0,.67C23.88,70.24,23.87,70,23.58,69.92Zm-1.14-6.24Z"/><path d="M202.05,161.25c-3-.08-5.21-2.13-7.69-3.48-2.67-1.47-5.59-1.68-8.31-2.94-5.12-2.37-8.5-8-10.42-13.08,3.05,1.42,4.21,6.24,6.3,8.71a12.77,12.77,0,0,0,5.09,4c2.3.83,2.32.11,3.62-.35,3.38,2.21,6.45,5.25,10.49,6.22-.59-.86-9.68-5.19-8.62-6.33.57-.61,4.32,2.27,4.9,2.49a13.19,13.19,0,0,0,2.07.92c1.05.21-.48-1.52.71-1.48,2.48,5.49,9.6,5,13.54,8.41,3.71,3.16-4,2.18-4.66.87-.17.72,8.07,3.07,9.08,3.23,3,.47,7.16-.23,9.76,1.57-5.58-.18-11.81-.15-16.91-2.76C209.59,166.52,203.75,160.61,202.05,161.25Zm-.39-2.59c.32,1.21,4.1,3.8,5.84,3.89C206.52,163.19,202,159.22,201.66,158.66Z"/><path d="M240.58,116.34c0,.21.91,3.5.5,3.55-1.24.13-4.16-6.17-4.71-7.14-.47-.81-1.55-2.09-1.62-3-.17-2.3,1.38-1.44,2.52.35-.05-.16-1.88-2.71-1.05-2.83,1.27-.19,2.2,2.79,2.77,3.59,1.3,1.79,3,3,4.43,4.75A166.45,166.45,0,0,1,254,129.17c3.19,4.68-1.25,1.87-3.19-.17-3.17-3.34-7.1-7.54-8.36-12.07-.48.3,1.16,5.33.92,6.24a30.57,30.57,0,0,0-1.28-4.61,7.62,7.62,0,0,0-.9-1.94C240.65,116,240,116,240.58,116.34ZM252.3,129c-.2-1.73-4.67-6.26-5.89-7.42,1.5,2.88,3.69,6.31,6.6,7.95C252.68,129.86,252.45,129.68,252.3,129Zm-13.13-16.1c-.15-.13-1.38-1.41-1-1.67.24,1,1.62,1.64,1.61,2.78Z"/><path d="M27,159c.47-6,4.91-10.2,9.09-14,1-.91,7.7-4.39,8-5.13-.57,1.62-3.19,2.42-4.43,3.31a36,36,0,0,0-6.19,6c-1.64,1.9-6.44,6.43-5,9.29,1.39-1.37,2.12-3.17,3.61-4.59l2.24-2.16c.53-.5,5-5.06,4.07-2.31s-5.09,3.38-5.95,6.26c-.24.8.2,8-1.34,8-2.12,0,1.62-5.67-.06-6.33-2.23-.87-1.18,6.15-2.75,6.07C27.19,163.39,26.94,159.75,27,159Z"/><path d="M105.94,50.94c.38-5.21,3.26-10.4,6.52-14.38.68-.82,5.79-7.12,7-6.14s-6,9.69-6.58,10.54a70.77,70.77,0,0,0-4.8,8.15C107.76,49.82,106.6,53.46,105.94,50.94Z"/><path d="M201.69,118.6c-.5,2.79-7.61-4.89-8.4-5.78-3.29-3.71-9.22-8.76-9.54-14,.05.85,2.27,1.18,2.81,1.6,1.76,1.37,2.88,3.53,4.12,5.35a48.7,48.7,0,0,0,7,7.67c1.09,1.07,3.27,3.25,4.34,4.34.42.43.73.88,1.14,1.32C202.25,119.29,200.94,119.07,201.69,118.6ZM187.86,104C188,103.9,187.79,104,187.86,104Zm1,1.6c1.39.5,2.52,3.1,3.38,4.19,1.72,2.18,3.92,3.93,5.57,6.16C195,112.93,192.26,107.86,188.82,105.61Z"/><path d="M104.27,41.15c2.21.19-1.19,3.14-1.54,4-.93,2.17-.53,5.33-.75,7.63-.36,3.83-.29,10.53-3.54,13.19.13-1.53,1.83-13.74.39-15.29-.17-.18-.63,1.17-.89.86-1.2-1.42,1.24-7.39,3.14-7.13a3.66,3.66,0,0,0-.11,1.32C101.49,45.93,104.09,41.6,104.27,41.15ZM101,47C101.05,47.05,100.89,47,101,47Zm.38,2.94C100.75,51,98.8,60,99.78,60A45.33,45.33,0,0,0,101.33,49.9Z"/><path d="M94.57,24.55c4.75-3.93,3.1-.36,1.42,3.07a77.75,77.75,0,0,0-3.12,8.63c-.43,1.27-5.84,14.52-5.73,14.61-2-1.73.06-9.6.45-11.39A42,42,0,0,1,94.57,24.55ZM87.7,45.09c0-.29,0,2.46.33,2.21,3.21-2.49,3.23-8.66,4.45-12.24.45-1.35,4.63-9.17,3.57-10.3-.61-.65-4.18,5.76-4.47,6.32A33.55,33.55,0,0,0,87.7,45.09Z"/><path d="M218.35,48.23c6.65.19,13.51.32,19.16,4.28,3.49,2.43,5.51,8.05.64,3.4-4.69-4.49-11.08-5.24-17.35-5.66A26.9,26.9,0,0,1,214.87,49c-.86-.24-3.67-1.1-4.52-.9C211,48,218.35,48.22,218.35,48.23Zm18.31,5.17c-.47-2.55-12.59-4.4-12.65-3.72C227.51,50.27,235.16,50.92,236.66,53.4Zm1.5.77c.14-.23.57.45.63.73A.93.93,0,0,1,238.16,54.17Zm-16.83-5.12-.56.12S222.28,49.24,221.33,49.05Z"/><path d="M85,17.92c.77,1-1.24,5.84-1.18,7.51.08,2.5.68,4.88.64,7.4,0,1.05-.93,11.61-.49,11.72-2.65-.68-2.54-8.94-2.66-11C81.11,30.46,80.75,19.27,85,17.92ZM82.76,35.77A20.17,20.17,0,0,0,82.12,30,14,14,0,0,0,82.76,35.77Zm.32-9.48Zm.59,5.12C83.44,31.23,83.41,32,83.67,31.41Z"/><path d="M184,89.87c.24-.78,4.42,4.1,5,4.57-.95-.47-4.36-4.38-3.5-5.51-.73.95,15.49,16.24,12.44,17.3-2.64.92-16.28-15-14.86-16.65-.14.16,9.59,11,9.8,11.24-2-1.33-3.37-3.88-4.94-5.66C186.62,93.71,185.4,91.06,184,89.87Zm6.3,6.4c-.17,0,.27.24.62.63C190.7,96.7,190.5,96.49,190.3,96.27Z"/><path d="M206.53,135.72c-1-1.75-12.42-16-13-15.47,2.18-2.12,15.72,16,15.46,18.67-.48,4.94-5.91-5.22-6.69-6.44-.54-.82-10-12.83-11.12-12.48,2.57-.81,15.24,14.44,15.68,16.81Z"/><path d="M197.69,88.9c-.26-1.23-7.93-12.19-8-12.17,1.78-.44,7,9.06,8.16,10.65,1.37,1.81,5,4.8,5.84,7s.37,1.43-1.26.66c-2.55-1.2-17.66-15.88-15.32-18.73-.56.68,13.64,16.17,14.1,16.68C199.88,91.78,199.29,89.83,197.69,88.9Z"/><path d="M192.71,69.93c-.25-.37-4.45-3.35-4.17-3.72,2.8-3.64,17.56,18.7,15.35,18.72-.85,0-4.15-5.69-5-6.6-3.28-3.6-8.22-5.08-11.35-8.55.9,1,5.46,2.48,6.73,3.15-.5-.58-6-5.75-6.46-5.42,2.19-1.71,7.21,5.73,8.93,5.82C195.51,72.11,194.39,70.59,192.71,69.93Z"/><path d="M117.88,50.67c-2-2.59,6.62-12.69,8.34-14.31,1.92-1.82,8.85-8.34,11.8-7.74,1.84.37.76.48.11,1.67-1.2,2.2-4.12,4.25-5.89,6-1.49,1.48-3,3-4.43,4.47C124.87,43.81,121.7,48.76,117.88,50.67Zm17.25-19.33c-6.82.7-12.95,10.72-15.26,16.15,3.46-1.87,5.79-5.61,8.39-8.46C130.23,36.88,134.72,33.12,135.13,31.34Z"/><path d="M119.44,17.85c-.89,6.45-10.64,11.22-14.68,15.83a23.88,23.88,0,0,0-3.42,5c-.48.94-.52,2.37-1.31,3.13-2.17,2.08-1-.8-.67-1.85,1.44-4.11,4.22-8.5,6.7-12.1C107.37,25.94,116.35,15.52,119.44,17.85ZM104,33.4c2.26-3.08,5.3-5.51,8.16-8,.35-.3,5.63-6,5.28-6C112.54,19.52,103.75,28.47,104,33.4Z"/><path d="M157,102.67c.13-1.43-4.12-4.39-2.68-5.71.36-.33,3.36,4.47,3.93,4.78-1.27-.5-4.84-5.37-1.82-4.62,1.76.43,3.76,4.55,5.08,5.95.88.93,5.86,4.77,4.95,6.05-1.25,1.75-5.47-3.13-6.67-3.54a5.47,5.47,0,0,0,.75,1.9c-.89-.32-7.34-6.67-7-7,.93-1,4.59,3.11,5.22,3.71C158.35,103.82,157.6,102.72,157,102.67Z"/><path d="M128.58,49.66c-2.84-5.73,14.75-16.56,18.68-18.58.78-.4,3.21-2.07,3.66-.72.32,1-5.19,3.56-5.92,4.15-3.35,2.7-6.29,5.94-9.35,9C134.07,45,131,49.66,128.58,49.66Zm1.64-2.12C131,46,143.54,33.77,144,34.11,141.5,32.38,129.7,47.2,130.22,47.54Z"/><path d="M170.93,51.07c3.51-.44,9.65,3.89,12.39,5.88.49.36,6,5.29,4.81,5.78s-9.5-5.76-11.24-6.5c-1-.43-4.68-.93-5.34-1.79-1.26-1.66.67-1.19.47-1.87a2.87,2.87,0,0,0-1.83-1Z"/><path d="M192.75,147.07c-3.25-.55-5.46-5-7.39-7.29-.66-.79-5.67-6.81-3.82-6.73-.48,0-.53-1.83-.54-2.06,1.43.49,3.07,3,3.49,4.46-.2-.58-2.33-4.09-1.68-4.48-1.47.88,12.41,14.9,12,16C194.55,147.85,193.3,147,192.75,147.07Zm-7.32-10.28S185.42,136.88,185.43,136.79Z"/><path d="M180.15,140.17c-.37,1.66,1.91,3.84,2.84,5,0-2.43,7.88,8.14,8.09,8.14-5,0-8.25-6.71-10.56-10.25a75.5,75.5,0,0,0-4.73-6.88c-1-1.22-4.31-3.84-4.33-5.49,0-2.51,4.09,2.67,5,3.81.75.94,5.91,8.46,7.15,7.83-1.32.67-3.49-3.14-4.09-2.72Zm4.29,6.9c.95,0,2.46,3.39,3.4,3.63C187.27,150.56,185.05,147.73,184.44,147.07Z"/><path d="M213.34,38.59c-2.06,2.9-11.32-7-11.29-7.09.33-.51,8.76,3.85,10.21,4.33,4.14,1.36,8.76,2.41,12.58,4.54,2.4,1.34,4,3,.23,1.87-4.3-1.3-8.87-2.74-13.13-4.34A3.13,3.13,0,0,0,213.34,38.59Zm2.39-.43c-.59-.82-5.22-1.12-5.31-2,.13,1.21,7.67,2.37,7.6,2.61C218.09,38.56,216,38.21,215.73,38.16ZM220,39.33C219.56,39.2,219.93,39.73,220,39.33Z"/><path d="M126.39,12.18C131.62,8.28,136.5,4,142.66,1.65c.61-.24,12.57-3.22,11.85.4-.14.69-7.82,1.89-8.75,2,.49-.55,5.59-1.88,5.44-2.43-.84-3.14-21.7,5-21.6,8.74,0-1.64,14.38-6.8,16.22-6.37-3.3,3-9.13,3.66-13,5.79C132.23,10.13,125,15.45,126.39,12.18Z"/><path d="M123.41,61.63c-1.91-1.36-3.35,0-1.63-3.61.78-1.64,3.49-2.79,2-4.33.36-.68,2.5-1,3.12-.81-.46-.16-5.3,6.08-4.47,7.08,0,0,12.76-14,13.25-13.28C137.33,49.09,125.57,63.29,123.41,61.63Zm9.27-11.22c-1.13.22-8.43,8.87-8.15,9.37C125.15,60.92,132.54,50.78,132.68,50.41Z"/><path d="M55.33,32.45l.43-1.15c-.16.14,12.07,20.81,9.16,22.47C61.8,55.55,55.47,33.7,55.33,32.45ZM63.25,51.4c-.9-4.2-3.26-8.27-4.75-12.28-.34-.91-2.61-5.34-2.28-5.9C54.68,35.88,61,50.13,63.25,51.4Z"/><path d="M32.39,51c-4.72-1.76-6.89,6.07-12.55,2.72-.39-.23-4.62-3.51-3.7-4.37,1.53-1.41,4,2.2,5,2.84,2.47,1.52,4.09,1.1,6.44-.58,1.88-1.35,1.85-.37,1.16-2.19-.47-1.25-6.35-6-4.38-7.54A37.91,37.91,0,0,0,28.57,48c-.37-2.1-4.36-4.77-3.4-7.08C24.72,42,33.14,50.38,32.39,51Z"/><path d="M171.23,101.66c-.18-.89-6.74-8.09-6.25-8.27.74-.27,2.85,3,3.52,3.45.16-.14-2.66-2.72.83-.54a16.33,16.33,0,0,1,2.6,2.78c.53.56,6.32,7.09,6.78,6.72-3.8,3.11-16.76-11-15.46-12-.21.16,8.7,8.59,9.57,9.47C172.42,102.92,171.82,101.77,171.23,101.66Z"/><path d="M191.2,133.45l.32-.6c-.34.15,10.67,12.06,10.73,13,.2,3.45-4.5-1.35-5.47-2.36-2.95-3.08-6.72-6.76-7.71-11C189.12,132.69,191,133,191.2,133.45Z"/><path d="M178.07,111.44c.7-1.79,2.9,2.61,3.13,3a36.6,36.6,0,0,0,5.4,6.92c.65.63,8.74,7.21,8.66,7.34-1.51,2.54-21.15-14.07-18.16-17.83.17-.22,3.35,4.11,3.48,4.5C180.12,114.34,179.2,111.93,178.07,111.44Zm3.45,5.41c-.27-.21.88.48.59.55A.73.73,0,0,0,181.52,116.85Zm1.46,1.88Z"/><path d="M172.64,114.84a1.22,1.22,0,0,1,.38-1.46s1.8,2.25,1.7,2.59a1.76,1.76,0,0,1,.14-1.47c.84-.21,5.18,6.77,6,7.62,1,1.07,7.49,5.64,5.14,6.66s-7.53-5-8.77-6.32C174.91,120,174.31,117.27,172.64,114.84Zm4.48,5.81c.45-.14,5.61,6.54,6.32,5.71C183.26,126.58,177.69,121.32,177.12,120.65Z"/><path d="M239.52,93.89c.45-1.77,8.12,5.34,8.92,6.19,2.16,2.29,8.72,10.49,7.47,14-1.09,3.13-2.64-2.88-3.14-3.8a30.34,30.34,0,0,0-5.26-6.68c-1.2-1.19-9.42-7.72-8.55-9.62.19-.4,14.26,14.59,13.77,14.64-.51-.18-3.8-6.86-4.38-7.55C246.12,98.48,243.15,94.54,239.52,93.89Z"/><path d="M74,50.81c-1.36,1.38-9.93-23.47-5.22-23.58C71.27,27.17,73.63,48.11,74,50.81Zm-2-6.33c0-2.65,0-10.29-2.63-11.81-.79,2.32.19,5.43.83,7.68C70.44,41.23,72,44.1,72,44.48Z"/><path d="M74.07,34.75c-2.12.56,1-10.27,1.4-11.18a33,33,0,0,1,3.89-6.93c.3-.42,6.58-7,7-4.61.3,1.51-5.33,6.94-6.23,8.46A62.81,62.81,0,0,0,74.07,34.75Zm9.36-20.43c-3.73-.9-10.19,12.86-9.17,15.86,1.79-.94,3.47-7,4.48-8.79C79.88,19.44,83.14,16.07,83.43,14.32Z"/><path d="M241,167.12c-5.29.08-8.83-1-12.89-4.31-1.26-1-10.45-8.08-9-9.68.92-1,5.1,4,5.52,4.37,2.32,2.28,5.56,3.49,7.75,5.63,2,2,1.1,2.78,4.84,3,.55,0,7.1.62,7.07.63A9.49,9.49,0,0,1,241,167.12Z"/><path d="M212.12,108.56c.58-2.8-6.55-5.79-4.85-8.43,0-.06,3.64,4.69,4.22,5-.48.61-3.05-4.41-2.3-4.6,1.66-.42,9.74,13.4,11,14.51-2.22-2-5.1-2.64-7.43-4.88s-5.53-4.82-5.83-8.17a45,45,0,0,0,6.43,7.61Z"/><path d="M72.61,62.13c-3-.79-5.22-8.26-6.15-10.7-.55-1.42-2.85-6.32-.88-5.85s5.17,8.4,6.07,10.14c1.1,2.12,5.1,8,4.11,10.51-1-.44-3.17-3-3.2-4.15.23-.08.35,0,.38.09.23-1.93-3.62-7.44-4.73-8.94C68.65,56.51,73,58.73,72.61,62.13Z"/><path d="M208.88,154a47.48,47.48,0,0,0,8.81,6.73c.59.33,4.73,1.79,4.54,2.67-.42,1.89-19.26-6.17-18.09-10.46-.14.51,5.24,3.16,5.78,4.09-1.26-1.58-2.91-2.8-4.13-4.41C206.41,152.27,208.78,154.13,208.88,154Zm2.44,3.81C211.4,157.72,211.38,157.89,211.32,157.76Z"/><path d="M203.1,107l-.22-.75c1-1.95,13.58,12.39,10.47,14.12-.52.28-5.87-6.93-6.36-7.5C206.16,111.89,201,106.85,203.1,107Z"/><path d="M210.49,123.11c4.28,1.72,7.42,5.63,10.08,9.22,1.18,1.58,6.43,7.19,5.69,9.47-.44,1.38-3.69-4.63-3.88-4.9a37.71,37.71,0,0,0-5.49-6C216.11,130.23,208.47,124.29,210.49,123.11Zm2.28,2.37a16.78,16.78,0,0,0,1.86,1.89C214.56,127.53,212.94,125.71,212.77,125.48Z"/><path d="M78.63,41.88c1.46.18,4.27,21.12,2.81,21.62S74.24,43.27,78.63,41.88Zm1.82,18.69c-.26-2.41.4-8.29-1.76-10.15C77.26,52.81,78.61,58.6,80.45,60.57Z"/><path d="M92.74,52.07c.07,1.44-1.92,12.83-2.31,12.59-2.36-1.42-1.35-16.38,1.78-17.43C92.47,47.14,92.72,51.68,92.74,52.07ZM91.83,56a2.47,2.47,0,0,0-.4,2.66c.16-1.14.76-2.61.37-3.76Zm-1.45-.67a4.87,4.87,0,0,0,.15,2.4A6.57,6.57,0,0,0,90.38,55.29Z"/><path d="M43.58,25.76a45.5,45.5,0,0,0,.55,10.56c.21,1.19,1.78,5.27.95,6.44-.36.51-3.48-8.49-3.59-9.27-.42-3.08-.62-6.35.68-9.25,0,.06,1.15-3,1.76-2.24S43.7,25,43.58,25.76Zm-1.64,3.66c.35-1.84.35-1.84,0-2.4Z"/><path d="M124.29,47.48a4.5,4.5,0,0,1,2.37-1.64c-.24,2.37-3.53,5.46-4.68,7.44-.92,1.55-1.72,3.15-2.56,4.74-.6,1.14-2.59,6.26-3.75,3.83C114.28,59,121.89,49,124.29,47.48Zm-2.83,4.37Z"/><path d="M60.9,18.67c0-4.14,1.46-3.66,2.48-.26,1.42,4.78,1.77,9.7,2.83,14.55.8,3.67-.13,4-1.56.33A59.54,59.54,0,0,1,60.9,18.67Zm.93.78c.13,1.56,1.8,12.62,3.46,11.4,2.09-1.53-3.63-10.31-3.34-12.39Z"/><path d="M254,144.46c-.35-1-7.67-10.88-8-10.4,1.17-1.73,7.8,7.55,8.25,8.84.29.84,1.77,6.88.2,7.08-.06,0-4.37-8.78-5-9.49s-4.73-6.15-5.32-6C246.24,133.91,253.91,143.9,254,144.46Z"/><path d="M253.38,89.41c-.8,2-4.57-5-5.08-5.73-1-1.43-9.31-7.28-9.12-9.24,0-.33,6.45,4.14,7,4.62C249.08,81.54,253.25,85.28,253.38,89.41Z"/><path d="M114.5,49.37c.47,3-3.4,6.81-4.69,9.42-.85,1.74-3,5.79-3.2,1.66-.13-2.13,8.41-13.34,8.23-13.52,1.35,1.4-3.25,3.92-2.35,5C113.19,51.64,114,50,114.5,49.37Z"/><path d="M196.66,23.49c-5.9-.35-11.82-.18-17.69-.88-.73-.09-9.35-.83-9.79-1.74,0-.05,20.82-3.09,23.08-1.77-2.57.06-16.31-1.2-18,1.6C174.37,20.56,196,23,196.66,23.49Z"/><path d="M233.3,65.06c.24-2.5,14,2.84,15.27,4.17,2.32,2.42,1,3.08-1.71,2A92.12,92.12,0,0,1,233.3,65.06Zm4.49.86c-.48.31,10.06,4,10.23,4.53C247.28,68.08,240,66.3,237.79,65.92Z"/><path d="M119.61,4.6c-1.62,4.54-8.21,4.73-10.1,9.08,4.41.64,12.13-11.63,14.17-10.77-.21-.09-12.11,13.57-16.07,13-3.8-.51,2.4-4.06,3.74-5.14C112.17,10.13,118.75,3.73,119.61,4.6Z"/><path d="M245.47,150.49c1.38,2.29,3.82,4.44,4.66,7,1.19,3.64-1.07,2.33-2.95.25s-4.56-5.3-5-8.07C241.49,145,245.69,147.64,245.47,150.49ZM243.54,149c.05-.51.72,1.86,1.32,3,.76,1.4,1.79,4,3.17,4.92C247,154.34,245.69,150.94,243.54,149Z"/><path d="M41.4,49.33c-3.58.14-8.5-17.36-5.33-18.46,1-.35,1.5,7,1.68,7.8C38.53,42.36,40.91,45.56,41.4,49.33Z"/><path d="M49.86,27.71a19.44,19.44,0,0,1,3.9-11.12C55,15,56.69,13,56.8,16.21c.07,1.9-2.71,4.92-3.39,7-.53,1.57-.9,6.56-3.08,6.89C50.12,30.08,49.89,28,49.86,27.71Zm5.71-11.4c-2.88,0-5.42,9.25-4.72,11.3C53.52,25.34,52.71,17.73,55.57,16.31Z"/><path d="M211.22,89.94c0-.4-1-2.56-.28-2.71,1.12-.26,7.81,12.24,7.71,12.34-1.69,1.57-9.47-9.58-9.1-11.77C210.26,88,211,89.3,211.22,89.94Zm1.11,1.4C212.33,91.19,212.44,91.67,212.33,91.34Z"/><path d="M232.18,93.46c-.62-.18-12.35-10.2-12.22-10.7C220.32,81.39,233.3,89,232.18,93.46Z"/><path d="M196.65,45.5c-3.12-.25-6.43-2.28-9.38-3.3-1.65-.57-6.79-.89-7.85-2.38C183.65,37.25,193.67,41.88,196.65,45.5Zm-9.9-4.29c.74.14-3.42-2.63-4-1.74C182.56,39.81,186.32,41.05,186.75,41.21Z"/><path d="M163.88,12.75c-2.55,2.05-7.12,1.79-10.21,2-2.38.16-4.79.13-7.16.4-.61.06-3.71,1-4.47.48-.23-.15,9-3.56,10.67-3.33a36.82,36.82,0,0,1-3.91,1.82C149.94,15.92,162.34,12.68,163.88,12.75Z"/><path d="M232.14,158.87c.21-.92-3.74-5.35-2.59-5.93,0,0,7.38,8.42,7.68,9.46s-12.14-7.56-9.37-8.45c1.2-.4,4.07,4.68,5,5.51Z"/><path d="M172.74,122.7c0-1.28-5.92-11.75-6.51-11.63.79-.16,12.88,17.64,12.74,17.86-.63,1-3-2.42-3.53-2.58a3.7,3.7,0,0,1,1.68,2.16C173.69,128.39,175.28,123.69,172.74,122.7Z"/><path d="M174.54,42.26a35.28,35.28,0,0,1,12,4.61c.51.33,6.18,4.75,5.9,4.92-.92.55-6.39-4-7.32-4.61a24.82,24.82,0,0,0-4.16-2.07c-2.3-.88-6.08-.86-8.09-2.22A1.59,1.59,0,0,1,174.54,42.26Z"/><path d="M214.73,102.13c-4.25-1.12-7.47-6.21-10.11-9.49-.5-.63-5.8-7.79-5.25-8,1.35-.43,5.13,6.2,5.85,7.15C208,95.53,212.54,98,214.73,102.13Z"/><path d="M244.3,144.05c-1.16,1.19-2.83-4.13-3.18-4.72-1.06-1.86-3.71-3.6-4.16-5.68-.62-2.88.82-1.47,2.17.11A24.57,24.57,0,0,1,244.3,144.05Z"/><path d="M238.85,86.71a1.8,1.8,0,0,1,.83.58C239.46,88.54,218.82,78,221,76.07,220.58,76.41,238.23,86.46,238.85,86.71Z"/><path d="M55.39,168.14c.78.12,1.93.68,2.7.24.24-.14-.21-1.14-.09-1.24,1.17-.95,1.91-3.51,3.44.08C63.69,172.51,57,170.79,55.39,168.14Z"/><path d="M246.83,109c-.1.23-12.91-18.12-14.14-17.83,1.63-.39,5.42,5.37,6.3,6.44C241.94,101.11,245.19,104.62,246.83,109Z"/><path d="M230.89,97.13c-2.23.52-19.37-12.57-17.71-14.61C212.27,83.64,229.41,95.66,230.89,97.13Z"/><path d="M5,128.68c-3-1.86,8.94-18,13.36-16.59-1.51,2.66-6.09,4.72-8.16,7.25C8,122.06,7.32,126.32,5,128.68Z"/><path d="M36.22,163.66c-1.24.07.83-6.31,1.3-7,.69-1,7.12-6,8.25-5.68.28.07-5.26,4.18-5.72,4.65C38.17,157.57,38.43,162.43,36.22,163.66Z"/><path d="M221.79,61.59c-3.65-.38-17.72-2.89-18.06-8.3-.06-1,3.24,2,3.27,2a20.58,20.58,0,0,0,5,2.84c2.73,1.16,8.35,1.3,10.48,3.22Z"/><path d="M169.65,74.83c-.61-2.89-12.56-7.92-11.45-10.43C159,62.51,169.44,73,169.65,74.83Z"/><path d="M189.92,160.16c-4.68.25-9-3.91-12.23-6.83-1.06-1-7.16-5.74-6-7.55-.42.68,5.79,6.06,6.35,6.59A39.4,39.4,0,0,0,189.92,160.16Z"/><path d="M230.83,132.42c-3.6-2.64-5.7-6.95-9.15-9.83-.48-.4-6.55-5.12-6-5.52C218.44,115.13,230.64,130.58,230.83,132.42Z"/><path d="M191.69,104.16c1.83-.36,4.85,5.6,5.65,6.76a33,33,0,0,0,2.52,3.47c1.74,2,4.62,2.7,6.18,4.59C201.38,121.78,192.73,106.6,191.69,104.16Z"/><path d="M219.29,109.87a50,50,0,0,1,9.34,7.89c1,1.14,2.49,4.94,3.43,5.61-2.86-2.07-4.72-5.87-7.47-8.25C223.8,114.44,218.2,109.59,219.29,109.87Z"/><path d="M31.07,135.3c0,.8-10.61,15.22-8.73,16C17.7,149.33,31,135.16,31.07,135.3Z"/><path d="M200.47,149.61c-3.61-1.73-6.44-5.22-8.59-8.52-.5-.76-2.84-6.05-3.3-6.14,1.73.33,4.76,6.84,6,8.15C196.3,144.87,200.05,147,200.47,149.61Z"/><path d="M232.88,140.25c2,.06,5.32,7.93,4.64,8.1C235.66,148.82,231.62,140.22,232.88,140.25Z"/><path d="M139.62,45.07c-.14.63-.5.88-1.08.74-.85-.85,13.58-11.07,16.1-9C153.58,36,140.11,44.6,139.62,45.07Z"/><path d="M233.78,61.1c-1.35-.38-16.38-6.72-16.4-6.65C218.13,52.57,232.9,59.53,233.78,61.1Z"/><path d="M73.06,54.76c-.09-.39-1.17-2.18-.55-2.47,1.14-.54,5.93,4.7,2.31,5.22-2.2.32-5.8-5.79-4.85-7.59C71.67,50.92,71.65,53.48,73.06,54.76Z"/><path d="M197.07,68.1c1.32,0,13.22,11.08,13.82,10.52C208.42,81,197.34,67.88,197.07,68.1Z"/><path d="M157.61,10.85c2.13-2.56,8.1-.28,10.71.28.74.17,7.35,1.87,7.39,1.82-.63.83-2.53-.32-3.17-.31.8,0-2.46.44-1.28.56-2.21-.23-4.84-.3-7.38-.45.83-.41,2-.25,2.78-.72s-3.6-1.39-3.73-1.4A33.83,33.83,0,0,0,157.61,10.85Z"/><path d="M230.77,111.56c3.15,1.46,10.36,9,8.65,12.91-2.35-1.55-3.23-5.74-4.92-8-.8-1.1-1.77-2.07-2.59-3.15C231.5,112.75,229.63,111.28,230.77,111.56Z"/><path d="M241.1,161.22c-3.92-1-12.71-10.38-10.54-14.77,2.11,1.26,3.12,6.27,4.82,8.33S240.19,158.61,241.1,161.22Z"/><path d="M171.83,59.07c2.81.39,15.93,10,13.47,13.19C187.15,69.88,170.89,60.13,171.83,59.07Z"/><path d="M187.92,84c-2.33.74-12.93-10.45-12.16-11.28C176.29,72.14,187.66,83.69,187.92,84Z"/><path d="M182.09,86.31c-.23-2.34-10.55-8.66-10.46-9C171.93,75.92,182.49,82.83,182.09,86.31Z"/><path d="M178.6,28.36c-3,0-6-1.28-9-1.75-1.92-.3-5.07.07-6.56-1.46C165.73,23.34,176.63,26.06,178.6,28.36Z"/><path d="M227.87,170.06c.43,0,15.51.3,15.69-.82C243.09,172.19,229.41,171.92,227.87,170.06Z"/><path d="M93.13,10.84c.67-2.91,4.58-5.21,7.16-6.17.74-.28,6.48-1.83,6.38-.2,0,.35-4.75,1.94-5.29,1.91a11.71,11.71,0,0,0,1.26-1.62C98.66,4,96.11,9.15,93.13,10.84Z"/><path d="M231.81,107c-2.3-.23-11.55-11.23-12.32-10.93C221.64,95.24,231.21,104.9,231.81,107Z"/><path d="M23.41,128.66c-2.41,2.21-4.5,4.28-5.75,7.3-.26.64-1.8,5.9-2.38,5.44C12.74,139.4,21.85,127,23.41,128.66Z"/><path d="M249.24,98.54c-.44.43-8.52-9.13-8.78-9.06C242.25,89,249.24,96.43,249.24,98.54Z"/><path d="M17.62,145.46c.32-1.78,2.86-11.51,5.6-10.38-.22-.09-3.32,6-3.54,6.51S18.32,147.49,17.62,145.46Z"/><path d="M133.64,158.3C132.56,161.91,123,151,123,151c1.44-.45,3.65,2.82,4.52,3.57A21.14,21.14,0,0,0,133.64,158.3Z"/><path d="M213.25,68c-2.28-.13-11.44-8.71-11.58-8.64C202.68,58.78,212.59,66.67,213.25,68Z"/><path d="M247.89,88.51c-2.08,0-4.42-3.05-5.84-4.18-1.94-1.54-5.26-2.84-6.26-5.22C239.37,80.85,247,84.08,247.89,88.51Z"/><path d="M172.7,36.53c-2.17-.47-5-1.88-7.27-1.12,1.87-.64,11.72-1.09,12.26,2.12C177.65,37.29,173.08,36.61,172.7,36.53Z"/><path d="M240.22,151.85c1.44.75,6.93,10.1,6.61,11.65C247.21,161.66,237.43,154.64,240.22,151.85Z"/><path d="M130.77,59.72c-.28,1.53-8.9,13.13-11.06,10.54C120.58,71.31,129.75,59.91,130.77,59.72Z"/><path d="M253.86,101.8l-.23.77c-1.15-.39-1.59-4.38-2.16-5.32s-4.37-3.69-3.94-5.14c.1-.33,3.09,2.29,3.42,2.65A11.11,11.11,0,0,1,253.86,101.8Z"/><path d="M236.35,103.47a43.55,43.55,0,0,1,11.71,10.26C247.41,114.4,235.74,104.07,236.35,103.47Z"/><path d="M161.83,29.32c1.59-.05,4.34-.18,5.44,1.3-2.65.53-5.22-.62-7.87.17-.52.15-3.92,2.16-4.25,1.76C153.76,30.87,160.89,29.43,161.83,29.32Z"/><path d="M200.42,101.31c-.17-.1-10.9-11.23-9.79-11.57C192,89.31,200.07,101.68,200.42,101.31Z"/><path d="M191.62,28.48c-.74-.19-6.8-2.11-7.11-1.58,2.29-3.84,9.88,4,11.74,2.82C195.24,30.35,192.66,28.81,191.62,28.48Z"/><path d="M98.16,9.52a39.44,39.44,0,0,1-7.62,7.54c-2.42,1.66-3.32,1-1-1.19C90.41,15,97.78,9.15,98.16,9.52Z"/><path d="M255.28,123c.1,1-1.72-3.8-2-4.56-.82-1.89-3.39-4.53-3.21-6.61-.05.55,2.39,2.76,2.77,3.37C254.17,117.33,255.42,120.35,255.28,123Z"/><path d="M169.86,81.63a13.25,13.25,0,0,1,6.62,4c.89,1,1.38,3.1,2.5,3.78C178.2,88.93,170.54,81.24,169.86,81.63Z"/><path d="M192.11,37.15c2,.3,9.71.46,10.33,3-.27-1.09-10.77-1.15-11.84-2.77Z"/><path d="M19.3,148.07a15.22,15.22,0,0,1,1.4-4.9c.17-.32,2-2.88,2.14-2.48.22.91-1.2,3.08-1.42,3.69-.35,1-.39,2.8-.75,3.71C20.09,149.56,19.63,151.21,19.3,148.07Z"/><path d="M39.83,39.29l.34-1c1,.52,3.39,11.55,2.87,11.9S39.9,40.3,39.83,39.29Z"/><path d="M23.91,116c-.15.74-8.76,6.58-8.9,6.49S21.52,114.62,23.91,116Z"/><path d="M205.31,44.9c1.88.49,7.46-.32,8.53,1.7-.61-1.16-11.36,1.62-10.36-2.31C203.56,44,205.19,44.85,205.31,44.9Z"/><path d="M2.08,117.21c-2.5-.24,5.75-10.62,6.74-9.11C8.54,107.67,2.51,116.61,2.08,117.21Z"/><path d="M96,50.26c2.24-1.12.07,4.52-.76,5.25-.63-1-1.13-7.28.66-7.31C96.35,48.19,95.83,50.94,96,50.26Z"/><path d="M247.93,146.09c2.82,1.25,7.47,8.71,4.57,11.48-1.22-1.53-.75-4.12-1.37-5.86C250.4,149.67,248.45,148.21,247.93,146.09Z"/><path d="M115.6,159.74c.2-.08-1.89,1-2,.67-.58-1.45,3.65-5.31,4.61-5.75C118.93,156.78,116.64,158.65,115.6,159.74Z"/><path d="M184.46,51.86s-9.38-4.65-9.1-4.94C176.92,45.26,183.69,50.45,184.46,51.86Z"/><path d="M24.76,154.38c1.29-.61,1.66-5.36,3.63-4.74-1.78-.56-2.86,10.17-3.23,10.36C24.34,160.41,24.72,155,24.76,154.38Z"/><path d="M163.1,43.63c-.68,1.08-10.77-2.3-11.16-1.35C152.67,40.5,162.24,42.35,163.1,43.63Z"/><path d="M231.21,72c-1.26-.61-10.31-4.55-10.11-5.53C221.16,66.18,232.45,70.6,231.21,72Z"/><path d="M7.19,133.4c-2.52.4,1.26-8.41,3.59-9C8.69,124.93,7,131.74,7.19,133.4Z"/><path d="M70.53,140.12c-.52.76-11.19,2.89-11.18,3C59.24,141.24,70.45,139.78,70.53,140.12Z"/><path d="M40.22,74.37c0-.21-.78-2-.48-2.16.62-.28,4.43,4.54,2.51,5-1.23.31-4.92-4.32-5.4-5.26C37.59,71.25,39.8,73.92,40.22,74.37Z"/><path d="M91.15,120.08a16,16,0,0,1,2.95-6.81c.24-.36,2.76-3.44,2.94-2.9.28.82-2.85,4.95-3.23,5.6S91,120.63,91.15,120.08Z"/><path d="M142.86,19.55c.92-1.65,9.67-3.75,10.57-1.88C153.13,17,144,19.6,142.86,19.55Z"/><path d="M182.36,31.78c1.06,0,7.66.89,7.32,2.42.17-.75-9.88-1.42-9.89-1.42C179.88,31.71,181.72,31.84,182.36,31.78Z"/><path d="M192.21,19.15c2.18-.37,12.76,2.09,12.63,6,0,.47-4-2.88-4.84-3.28C197.52,20.63,194.65,20.5,192.21,19.15Z"/><path d="M221.5,150.07c-3.77-1.46-6.79-6.5-8.84-9.72C214.15,140.73,221.59,150,221.5,150.07Z"/><path d="M18.37,124.28c.06.18-6.33,8.09-6.58,8C11.35,132.14,16,123.7,18.37,124.28Z"/><path d="M195.5,49.29c1,.28,7.87,5.43,7.53,6.62C202.89,56.41,194.05,49.88,195.5,49.29Z"/><path d="M183.6,107.11c.67,0,6.58,6.59,6.3,7C189.4,114.76,182.72,108.73,183.6,107.11Z"/><path d="M157.13,134.3c-1.8-.1-8.21-7.18-8.58-7C150.25,126.56,156.09,133.22,157.13,134.3Z"/><path d="M67.69,156.36a4.68,4.68,0,0,1-.32-2.48c-.44,1,2.64,3.36,3.28,3.92-1.07,2.09-7-3.13-5.1-5.68.67,1.75,1.11,3.72,2.83,4.76Z"/><path d="M187.81,36.27c-.94-.23-9.78-2.39-9.92-1.85C178.42,32.35,187.26,34.7,187.81,36.27Z"/><path d="M105.27,44.55c2.25,1.05-2.76,8.32-2.22,9.09C101.73,51.75,104.52,46.11,105.27,44.55Z"/><path d="M5.81,84.18c.11-2,8-4.92,8.62-2.83C14.17,80.54,6.6,84.23,5.81,84.18Z"/><path d="M162,55.24c-.9,0-10.06-3.76-10.06-3.81C152.23,49.4,161.4,54.58,162,55.24Z"/><path d="M10.19,113c-.34.65-6.44,6.67-5.86,7.11C2.62,118.81,8.93,111.74,10.19,113Z"/><path d="M144.38,103.6c-.56.11-9-2.29-9.09-2.91C135.09,98.07,143.71,102.93,144.38,103.6Z"/><path d="M22.38,81.08c.95.69,2.15,8.17,2.26,8.19C22.61,88.91,20.86,82.43,22.38,81.08Z"/><path d="M139.16,136c-2.31,1.55-7.51-5.09-8.57-5C132.57,130.89,138.46,134.44,139.16,136Z"/><path d="M9.74,73c.19-1.38,6-3.21,6.16-1.4C16,72.8,10.41,73.13,9.74,73Z"/><path d="M11,142.92c0-.63-.08-3.8,1.1-3.81-.72,0,.49,6.74.35,7.36C11.7,149.78,11,144.27,11,142.92Z"/><path d="M222.84,63c.42.05,9.13,3.1,7.62,3.78-.74.34-3.1-1.67-3.87-2S221.3,63.75,222.84,63Z"/><path d="M174.05,125.72c-2.63-3.14-6.54-6.63-7.15-10.9C167.86,115.71,174.92,125.16,174.05,125.72Z"/><path d="M127.93,8.5c-.51,1.36-6.33,6.65-7.73,6.62C120.3,13.34,127.7,7.94,127.93,8.5Z"/><path d="M197,61.89c.18-.28-8.13-4.17-7.28-5C191.2,55.34,196.81,60.69,197,61.89Z"/><path d="M88.21,23.08c.15-.06,1.62-1.55,1.84-1.25.6.81-2.2,8-3.27,7.91C86.4,29.71,88.22,23.82,88.21,23.08Z"/><path d="M99.87,80.13c-.84-.38,4.54-6.9,6.14-6.14C105.62,73.81,101.2,79.91,99.87,80.13Z"/><path d="M153.56,117.84c1.84.59,7.27,3.57,7.11,6C160.71,123.36,152.65,118.47,153.56,117.84Z"/><path d="M153.16,24.31c-1.36.85-8.06,2.37-9.59,1.86C144.44,24.59,153.16,23.36,153.16,24.31Z"/><path d="M22.28,100.05l.61.42c.06.85-7.92,2.77-7.82,2.14C15.39,100.63,21,100.14,22.28,100.05Z"/><path d="M157,47.42c1.95-1.92,8.34,0,9.85,2C163.56,49,160.27,47.49,157,47.42Z"/><path d="M29.14,147.47c-1-.54,5.25-7.84,6.88-7C35.34,140.13,30.12,146.69,29.14,147.47Z"/><path d="M210.33,150c-3.21-.32-7.64-4.49-7.81-7.81,1.21.07,2.5,2.68,3.17,3.46C207.07,147.24,209.09,148.31,210.33,150Z"/><path d="M200.19,155.93c-.7-.51-6.06-5.36-6.06-5.37,1-.33,7.39,5.09,7.37,5.13A2.49,2.49,0,0,1,200.19,155.93Z"/><path d="M161.59,138.38c1,0,8.12,3.29,7.13,5C168.76,143.29,160.91,138.73,161.59,138.38Z"/><path d="M151.26,122.62c-.95,0-8.27-4.08-8.24-4.1C144.51,117.41,150.51,121.09,151.26,122.62Z"/><path d="M9.87,101.43c-.09.53-6.68,6.25-6.59,6.31C2.21,107,8.43,100.44,9.87,101.43Z"/><path d="M167.52,15.67c-.06-.23-6.58,2.19-7,1.91C159.91,17.11,165.7,14.38,167.52,15.67Z"/><path d="M217,78.36c-.76-.62-8.3-7.09-7.65-7.72C209.67,70.33,218,77.47,217,78.36Z"/><path d="M192.38,151.16c-1.28,1.82-7.47-6.67-7-6.88S192,150.4,192.38,151.16Z"/><path d="M150.3,102.55c-1-.11-9.07-4.68-9.06-4.7C142,95.86,149.72,101.84,150.3,102.55Z"/><path d="M150.82,5.94c.22,0,2.36-.22,2.21.27S144.84,8,144.76,7.83C143.86,6.47,150.8,5.18,150.82,5.94Z"/><path d="M154.55,112.49c-.91-.43-6.89-4.95-6.83-5.38C147.84,106.18,156,111.09,154.55,112.49Z"/><path d="M230.13,75.93c-.65,1.13-8.41-4.05-7.65-5.18A77.37,77.37,0,0,1,230.13,75.93Z"/><path d="M32.66,50.77c.53.28,5.9,3,5.44,3.27.13-.06-4.48-.95-4.52-1C31.92,52.37,30.51,52.54,32.66,50.77Z"/><path d="M67.8,62.53C66.7,63.84,62,56.4,63,56,63.46,55.81,67.8,61.84,67.8,62.53Z"/><path d="M160.52,117.73c1,.18,5.8,5.13,5.25,6S160.32,117.69,160.52,117.73Z"/><path d="M176.64,132.41c2.86,2.06,4.87,5.83,7.4,8.22C182,141.46,176.7,134.1,176.64,132.41Z"/><path d="M29.31,100.67c1.12-.08,4.86-.46,5.07,1.22,0,.47-7.77-1-7.82-1C26.93,100.31,28.77,100.67,29.31,100.67Z"/><path d="M126.36,79.43c-.58,1.2-6.46,5.89-6.68,4.89C119.24,82.38,125.75,80.12,126.36,79.43Z"/><path d="M205.94,36.68c-1.39-.2-8.25-1.71-8.46-2.71C197.44,33.8,205.14,34.86,205.94,36.68Z"/><path d="M83.36,53.13l-.18.66c-1.72-1.67-1.66-6.74-1.26-9-.1.55.89,2,1.06,2.61A22.11,22.11,0,0,1,83.36,53.13Z"/><path d="M10.23,94.15C9.31,93,16.94,88.4,17.79,90,17.68,89.79,10.83,93.92,10.23,94.15Z"/><path d="M149.8,113.83c-1-.24-7.38-5.79-7.51-5.68C143.92,106.73,149.37,112.43,149.8,113.83Z"/><path d="M167.21,119.26c-.81,1.21-4.31-6.77-4.4-6.75C164.21,112.13,167.1,118.06,167.21,119.26Z"/><path d="M212.69,42.67c-1.15-.16-7.77-.69-7.3-2.6C205.46,39.79,213.81,42.21,212.69,42.67Z"/><path d="M97,61.74c-1.56-1.44-1.71-1.14-1.51-3,0-.39.43-2.59,1.21-2.49C98.15,56.4,97.13,60.8,97,61.74Z"/><path d="M196.67,160.24c1.13,0,7.19,3.65,6.9,4.87C203.35,166.05,196.89,161.7,196.67,160.24Z"/><path d="M158.5,154c-1.45,1.13-7.37-3.52-6.92-3.92S157.9,153.4,158.5,154Z"/><path d="M130.2,28.07c-.51,1.34-6.73,5.25-6.53,3.89C123.84,30.88,130,27.52,130.2,28.07Z"/><path d="M159.52,128.53c1.39.32,5.81,4.51,5.83,6C163.76,134.57,159.9,130.11,159.52,128.53Z"/><path d="M10.29,98.56c-2.27-1.27,5.8-4.47,5.83-3.82C16.13,95,11.1,98.17,10.29,98.56Z"/><path d="M123.86,65c-.33-1.53,5.6-7.93,6.85-7.37C130.44,57.51,125,64.5,123.86,65Z"/><path d="M63.68,41.62c-.69,1.28-4.57-5.73-3.58-6.28C60.88,34.9,63.47,41.1,63.68,41.62Z"/><path d="M52.67,36.6a6.22,6.22,0,0,1-.2,1.93c.36-.84-2.86-6.59-.78-7.69C52,30.68,52.66,36,52.67,36.6Z"/><path d="M243.59,132.68c-.49,1-4.61-6.08-4.57-6.1C240.78,126,243.31,131.49,243.59,132.68Z"/><path d="M12.54,88.18c-1.37-1,6.58-3.72,6.52-3.77C20.29,85.32,13.61,88.18,12.54,88.18Z"/><path d="M153.07,155.39c1.39.18,6.81,5.33,5.67,5.69C157.87,161.35,153.1,155.37,153.07,155.39Z"/><path d="M24.81,154.33c-2.56.25-.64-6.72,1-7.09C25.42,147.33,24.67,153.71,24.81,154.33Z"/><path d="M94.42,73.9c.12.84-3,6.61-3.72,6.3S93.45,73.07,94.42,73.9Z"/><path d="M38.12,113.32l.7.15c-.76-.19-7.34,2.64-7.6,2C30.49,113.6,37.05,113.3,38.12,113.32Z"/><path d="M135.89,114.23c-.69,0-3.61.45-3.5-.93.06-.73,5.52-.17,5.9.72C138.41,114.32,135.89,114.48,135.89,114.23Z"/><path d="M132.5,103.57c.45.07,5.26.85,3.91,2-.18.15-6.21-1.74-6.21-1C130.2,103.48,131.92,103.63,132.5,103.57Z"/><path d="M105.56,70.66c-.26.81-5.52,4.62-5.55,4.57C99.31,73.92,104.77,69.68,105.56,70.66Z"/><path d="M166.63,129.26c.84.41,4.14,6.15,4.69,5.91C169.59,135.93,166.16,130.73,166.63,129.26Z"/><path d="M.1,106.26c-.79-1,3.37-6.94,4.7-6.47C4.94,99.84,1,105.73.1,106.26Z"/><path d="M99.53,98.53c.48.44-2.91,6.63-3.71,6.86C95.74,105.41,97.9,99.29,99.53,98.53Z"/><path d="M116.78,39.06c-1.25-1.42,4.32-5.92,4.71-5.42C122,34.3,117.67,38.59,116.78,39.06Z"/><path d="M167.27,120.78c1.14,0,5.9,5.72,5.37,6.65C172.33,128,167.63,121.39,167.27,120.78Z"/><path d="M88.63,112.61c-.12.57-1.49,6.57-1.79,6.45-1.89-.75,1.33-5.77,1.31-7.12A1.31,1.31,0,0,1,88.63,112.61Z"/><path d="M30.93,120.45c-.22.82-6.12,3.21-6.6,3C24.53,123.5,29.38,118.83,30.93,120.45Z"/><path d="M64.88,68.84c1.47.79,6.76,3.22,7.36,4.87C72.24,73.73,63.63,70.19,64.88,68.84Z"/><path d="M43.07,42.69c.58.19,2.69,7.13,2.58,7.21C44.39,50.75,42.61,43.76,43.07,42.69Z"/><path d="M85.67,53.44c0,.51.09,1.93-.53,2.24.33-.17-1.5-6.9-.47-7C85.94,48.62,85.7,52.74,85.67,53.44Z"/><path d="M150.21,97.78c-.53-.27-4.55-1.85-4.26-2.73.8-2.48,5.61,3.73,5.84,3.89Z"/><path d="M223.7,75c-.33,1-7.4-3-6.24-4.7C217.32,70.46,223.19,74.47,223.7,75Z"/><path d="M71.66,16.67c-.11-2.22,1.12.2,1.17,1.46s0,3.64-1,4.44C72.34,22.19,71.71,17.47,71.66,16.67Z"/><path d="M36.46,125c-.65-.62,6.28-4.22,7-2.82C43.46,122.16,37.3,125.1,36.46,125Z"/><path d="M78.54,110.78a1.24,1.24,0,0,1,.11,1c-.2.13-4.3-6-3.52-6.47C76.15,104.71,78.25,110,78.54,110.78Z"/><path d="M49.31,128.73c-.38.64-7.16,3.19-7.79,2.58C41.35,131.15,48,128,49.31,128.73Z"/><path d="M156.73,108.85c.83.69,4.71,6.87,4.91,6.79C160,116.31,155.88,109.71,156.73,108.85Z"/><path d="M77,98.45c-.52.75-3.79-4.75-3.38-5.44C74.22,92,76.86,97.78,77,98.45Z"/><path d="M118.32,13.65c-1-1.07,4.43-5,5.59-4.64C123.49,10.35,119.5,13.13,118.32,13.65Z"/><path d="M89.39,119.75c-.56-.67,1.48-7.62,2.29-7.28C92.19,112.68,90.37,119.58,89.39,119.75Z"/><path d="M56.09,144.18c-.86,2.72-4.69,3.58-6.14,5.91a13.35,13.35,0,0,1,2.18-3.38C52.4,146.46,55.71,143.22,56.09,144.18Z"/><path d="M47.87,92.59c1,.08,5.91,2.71,6.25,2.5-.8.5-3.46-.84-4.18-1.11C49.68,93.88,46.48,92.54,47.87,92.59Z"/><path d="M153.37,142c-1.06.73-6.68-3.64-6.28-4.34C147.38,137.12,153.13,141.54,153.37,142Z"/><path d="M75.23,59.9c.65.24,3,6.66,3.22,6.62C77.27,66.78,73.91,60.78,75.23,59.9Z"/><path d="M114.12,43.48c0,1.09-4,4.92-4.09,4.59C109.64,46.79,113,43.26,114.12,43.48Z"/><path d="M49.63,120.67c-.88-.14-5.94-.59-5.67-2.21,0,0,6.36,1.29,6.95,2.1Z"/><path d="M124.91,20.23c-.15.76-4.85,3.53-5.17,3.3S123.66,18.83,124.91,20.23Z"/><path d="M15.41,147.9c.08,1.34.81,3.29,0,4.55,0,0-2.23-7.72-.08-7.11C15.85,145.48,15.45,147.9,15.41,147.9Z"/><path d="M95.31,37.44c0,.39-2.44,6.51-3,6.33C91.27,43.45,94.34,36.7,95.31,37.44Z"/><path d="M134.31,21.54c-.71-.77,6.66-2.6,6.58-2.85C141.47,20.45,135.36,21.54,134.31,21.54Z"/><path d="M68.23,17.17c0,.49.43,2.54-.28,2.84C66.39,20.66,68.23,6.88,68.23,17.17Z"/><path d="M45.71,90.1c-.58-.06-5.7-.6-5.63-1.51.14-1.6,5.68,1.22,6.61,1.1C45.76,89.81,47.79,90.32,45.71,90.1Z"/><path d="M17.11,151.86c.06-.42-.24-3.84.64-3.65C19.06,148.51,18,161.91,17.11,151.86Z"/><path d="M138.54.24c-.2,1.12-7.29,1.81-7.27,2.68C131.23,1.54,137.6-.74,138.54.24Z"/><path d="M122.44,56.69c-1.87.57-1.23,3.47-2.88,4.23-.94-2.44,2.59-5.93,4.21-7.23C124.42,54.36,122.58,56.06,122.44,56.69Z"/><path d="M85.15,108.13a1.23,1.23,0,0,1-.21,1.08c-.92-.72-2.18-5.32-1.51-6.36C83.46,102.8,85.05,107.41,85.15,108.13Z"/><path d="M19.65,89.82c.81,0,6,.63,5.51,2C25,92.27,19,91,19,90.07Z"/><path d="M116.49,94.87c-2.63-.62,3.84-1.52,5-.86A45,45,0,0,1,116.49,94.87Z"/><path d="M93.44,92.36c-1.42-1.41,3.32-5,3.3-5.23C96.81,87.92,94.3,92.25,93.44,92.36Z"/><path d="M63.7,90.83c1.74.29,5.18,3,4.76,5.1C68,95.77,63.37,91.1,63.7,90.83Z"/><path d="M174.48,154.76c-1.88,1.42-5.51-4.74-4.72-5.16C169.72,149.61,174.3,154.3,174.48,154.76Z"/><path d="M55.85,120.29c-.84,0-5.81-1-5.51-2,.23-.78,5.7,1.12,6.19,1.83Z"/><path d="M128,124.66c.39.11,5.4,2,5.14,2.55-.4.78-6-1.27-6.07-2.19A.85.85,0,0,1,128,124.66Z"/><path d="M177.57,13.78c.69,0,3.68-.07,3.81,1.06-.11-.91-6.23,1-6.79.08C174.29,14.43,177.24,13.85,177.57,13.78Z"/><path d="M57.49,147.05c-1.13,0-5.42,5-6,4.4C49.8,149.74,59.08,145.63,57.49,147.05Z"/><path d="M105.33,44.51c-1.65-1.08,2.55-5.27,2.73-5.2C109.36,39.83,105.7,44.07,105.33,44.51Z"/><path d="M70.62,63.11c-.5,1-5.07-4.55-3.94-5.43C66.81,57.58,70.56,62.48,70.62,63.11Z"/><path d="M21.83,156.41c0,.29.52,3.19-.12,3.24-1,.07-1.6-6,0-6.28A21.38,21.38,0,0,1,21.83,156.41Z"/><path d="M121.37,38.39c.24.86-3.89,4.26-4.08,3.79C116.81,41,120.5,38.2,121.37,38.39Z"/><path d="M70.53,123.76c-.55-.31-6.54-3.68-6.5-4C64.21,118.49,71.55,122.73,70.53,123.76Z"/><path d="M133.66,13.24c-1.1-.74,4.33-3.54,4.89-2.49S134.42,13.18,133.66,13.24Z"/><path d="M126.42,12.12c-1.71,1.57-3.4,3.16-5.11,4.72C122.69,15.59,123.41,11.25,126.42,12.12Z"/><path d="M55.84,23.59c.62.37,2.33,5.81,2,6.43C57.74,30.23,53.87,23.59,55.84,23.59Z"/><path d="M74.85,118.79c-.61,1.1-4.9-4.72-4.94-4.73C71.41,114.25,74.6,117.28,74.85,118.79Z"/><path d="M128.13,25.29c-.16.57-5.29,3.61-5.18,3.74C121.77,27.72,127.13,24.88,128.13,25.29Z"/><path d="M49.39,116.12c-1,.69-6.2-3.19-5.44-4.44C44,111.67,49.15,115.47,49.39,116.12Z"/><path d="M138.18,146.94c.92.42,4.55,4,4.64,3.91C141.42,151.54,137.34,147.79,138.18,146.94Z"/><path d="M91.92,84.52c-.56-.29,2.86-5.51,3.62-5.14S92.41,84.36,91.92,84.52Z"/><path d="M159.6,145.56c.79.11,7.38,4.46,6.57,5.24C165.59,151.37,160,146.33,159.6,145.56Z"/><path d="M67.16,115.55c1.37-.14,5.28,3.57,5.07,3.62C71.61,119.32,66.71,116,67.16,115.55Z"/><path d="M37.82,31.68c-.65-2.21.8-1.37,1.24.31.09.37-.17,4,.15,3.94C37.81,36,37.79,32.5,37.82,31.68Z"/><path d="M125.37,108.06s-4.87,3.45-6,2.17C118.89,109.69,124.9,108,125.37,108.06Z"/><path d="M59.51,26.78c1,.06,2.41,6,2.28,6C60.65,32.93,59.07,27.58,59.51,26.78Z"/><path d="M132.51,108.4c.34,0,5.27.78,4.85,1.52C137,110.49,129.43,109.1,132.51,108.4Z"/><path d="M88.17,55.43c-.4,6-2.12-2.66-.92-3.37C88,51.63,88.14,55.13,88.17,55.43Z"/><path d="M47.77,23c-.21,1.62-1.07,3.11-1.17,4.75,0-.4-.37-5.9.83-5.51Z"/><path d="M156.1,68.93c0,.56.13,3.11-.73,3.2-.42.05-.45-5.43-.09-6C155.28,66.13,156,68.57,156.1,68.93Z"/><path d="M7.16,133.47c3.72-6.89.19,4.09.47,4.11C6.46,137.48,7.1,133.9,7.16,133.47Z"/><path d="M15.29,57.69c.31,0,4.41.53,4.07,1.21C18.92,59.77,9.9,58.35,15.29,57.69Z"/><path d="M35.12,136.47c-.57.52-4.29,4.6-4.79,4S34.38,135.66,35.12,136.47Z"/><path d="M26.66,131.14c-1.29-.64,4.51-4.68,4.75-2.86C31.44,128.54,27.11,131,26.66,131.14Z"/><path d="M118.21,120.56c-.25.4-5.94,2-5.92,1.24C112.32,120.84,117.44,120.12,118.21,120.56Z"/><path d="M32.11,90.64c.87.18,4.92.23,5,1.47,0,.64-6.14-.7-6-1.06Z"/><path d="M143.51,142.05c1.37,1.63,4.42,2,5.49,3.44.75,1-3-.11-3.05-.13C144.94,144.82,143.36,143.34,143.51,142.05Z"/><path d="M103.4,59.47c-1-.41.86-5.19,1.89-4.95C105.91,54.66,103.71,59.32,103.4,59.47Z"/><path d="M80.92,95.28c-.8-.57-3.18-5.43-2.6-6.1S81,94.7,80.92,95.28Z"/><path d="M110.8,72.34c-.8-.69,3.82-3.68,4.31-3.54C116.71,69.28,111.44,72.21,110.8,72.34Z"/><path d="M104.32,41.1c-2.62-.42,2.3-4.88,2.32-4.79C106.93,37.56,104.82,40.14,104.32,41.1Z"/><path d="M43.56,106.62c-.54.59-5.2-4.46-5.11-4.55C39.47,101,43.44,105.51,43.56,106.62Z"/><path d="M63.83,70.87c-1,0-5.74-4.19-5.67-4.24C59.62,65.54,63.29,69.89,63.83,70.87Z"/><path d="M66.26,75.75c-.73,0-7.53-2.16-7.12-2.73C59.79,72.13,65.74,75,66.26,75.75Z"/><path d="M51.93,90.57c.75.08,6.51,2.71,5,3.64C56.93,94.22,51.3,91.16,51.93,90.57Z"/><path d="M39.78,96.51c.76-.27,5.34.81,5.23,1.89C45,99,39,97.33,39.78,96.51Z"/><path d="M69.86,80.59c.58,0,5.48,3.54,4.73,3.82S69.49,81,69.86,80.59Z"/><path d="M166.32,40.68c-.52-.11-2.32-.12-2.53-.84.19.63,5.66-.36,6.24,1.68C168.85,41.83,167.39,41,166.32,40.68Z"/><path d="M60.19,80.09c1.3.07,3.86.08,4.8,1.19C63.83,82.16,56.91,80.09,60.19,80.09Z"/><path d="M52.68,124.11a.55.55,0,0,1,.67.36C52.62,127.06,42.14,124.39,52.68,124.11Z"/><path d="M96.94,61.81l-.49.77c.35-.49.88-1.63,1.48-1.88-.54.23.88,5.8-1.05,5.63C96.34,66.29,97.06,62.27,96.94,61.81Z"/><path d="M20.92,93.38c.8.15,4.61,1.07,4.14,2.5C25.06,95.88,19.31,94.27,20.92,93.38Z"/><path d="M107.16,80.5c-.4.71-3.69,4.46-4.38,3.85S106.29,79.46,107.16,80.5Z"/><path d="M60.64,91.87c-.62-.64-4.42-2.61-4.34-3.34C56.45,87.06,62.81,92,60.64,91.87Z"/><path d="M140.21,13.24c-.86-.48,3.29-3.91,4.45-2.62C145,10.94,140.5,13.16,140.21,13.24Z"/><path d="M80.06,64.28c.31.1,3.36,3.86,2.9,4C81.76,68.73,79,64.46,80.06,64.28Z"/><path d="M82.84,57.53l.31-.67c.82.33,2.08,5.45,1.42,6.06C84.34,63.13,82.83,58.2,82.84,57.53Z"/><path d="M56.51,43.59c-1.23,1.26-2.23-3.77-1.9-4.26C55.44,38.1,56.37,43,56.51,43.59Z"/><path d="M125.35,112.06c-.23.85-5.75,2.92-5.74,2C119.63,112.71,125.15,112.46,125.35,112.06Z"/><path d="M20.3,156.07l-.28,1c-2.24-.15,0-5.78-.31-5.92C20.75,151.68,20.14,155.14,20.3,156.07Z"/><path d="M28.72,104.08c.74-.07,5.38,1.48,3.93,2.38C32.24,106.71,27.63,104.85,28.72,104.08Z"/><path d="M100.45,25.83c-1.11-.36,3.21-5.38,4.09-4.75C104.91,21.35,101.12,25.72,100.45,25.83Z"/><path d="M65.05,86.22c2.5.37,2.93,2.13,4.44,3-.9-.5-5-1.49-5.23-2.68Z"/><path d="M107.75,55.19c0,.71-1.84,5.09-2.75,4.28C104.29,58.83,107.2,54.49,107.75,55.19Z"/><path d="M121.53,141.47c.62.26,4.39,2.87,4.08,3.75C125.4,145.79,120.38,142.25,121.53,141.47Z"/><path d="M106.62,7.92c-.05.6-3.71,3.65-4.1,2.74C102.26,10.05,106.09,7,106.62,7.92Z"/><path d="M140.94,55.74c-.19,1.13-4.13,4.1-5,3.57C135.44,59,140.32,55.77,140.94,55.74Z"/><path d="M15,75.94c-.43,1-5.65,1.14-5.67,1.26C9.45,76.06,14.22,75.22,15,75.94Z"/><path d="M113.28,56.65c-.07.44-2,4.78-2.65,4.55C109,60.67,113.33,56.47,113.28,56.65Z"/><path d="M51,114.49c-.33-.14-4-3.43-2.89-3.85C48.83,110.36,52.2,114.74,51,114.49Z"/><path d="M97.47,13.72c.06,1-2.83,5.29-4.06,4.71C92.77,18.13,97,13.85,97.47,13.72Z"/><path d="M16.42,68.32l1.59.23c-.52.81-5,1.68-5.54.59C12.2,68.59,16.06,68.35,16.42,68.32Z"/><path d="M76.56,70.7s-4.44-4.31-3.65-4.64C73.9,65.66,76.72,70,76.56,70.7Z"/><path d="M52.42,77.2c.86,0,3.36-.1,3.7,1-.08-.25-4.66,0-5.28-.79Z"/><path d="M137.54,116.84c.61-.39,5.09,2,4.84,2.66S136.5,117.51,137.54,116.84Z"/><path d="M55.08,113.65c-.81.55-4.08-2.57-3.86-3.27C51.5,109.45,55,113.16,55.08,113.65Z"/><path d="M109.94,92.16c-.38.44-5.11,3.15-5,2C104.94,93.29,109.38,91.64,109.94,92.16Z"/><path d="M116.92,87.91c-1.22-1.06,4.24-3.17,5-2.65C121.93,85.27,117.65,87.91,116.92,87.91Z"/><path d="M138.7,127.53c1.53.07,4.73,1.86,5.52,3.2C142.74,131.3,138.42,127.67,138.7,127.53Z"/><path d="M132.27,90.52c-1.26,1.2-3.85,3.09-5.65,2.62C127.06,92.51,131.6,89.77,132.27,90.52Z"/><path d="M121,78.76c-.9,1-4.12,4-5.17,3.49C115.84,82.26,119.49,78,121,78.76Z"/><path d="M86.24,85.49c0,.53-1.33,5.77-2.08,4.5C83.72,89.24,85.87,84.78,86.24,85.49Z"/><path d="M62.47,152c.8.37,2.11,5.85,2.9,5.7C63.64,158.06,62.18,153.15,62.47,152Z"/><path d="M130.74,87c-.47,1.34-5.57,2.82-5.63,3.2C125.39,88.59,129.47,86.79,130.74,87Z"/><path d="M80.28,84.47c-.47.5-2.92-4.13-2.07-4.68S80.39,84.1,80.28,84.47Z"/><path d="M84.94,77.85l-.32.71c-.71,0-1.89-5.07-1.26-5.34C84.15,72.88,84.85,77.45,84.94,77.85Z"/><path d="M133.77,144.42c-.94.75-4.67-2-4.46-2.83C129.45,141,133.5,144,133.77,144.42Z"/><path d="M102.07,92.32c.15-1.39,2.77-3.77,4.2-3.15C106.09,89.59,102.35,92.67,102.07,92.32Z"/><path d="M74.07,34.75c1.68.17,1.25,5.16,1.22,5.16C74.22,40,74.15,35.47,74.07,34.75Z"/><path d="M115.18,117c1.86.71-4.27,1.69-4.22,1.44C111.22,117.13,114.19,117.22,115.18,117Z"/><path d="M125.78,132.6c-.32,1.21-4.72-2.59-4.92-2.36C121.78,129.14,125.3,131.89,125.78,132.6Z"/><path d="M132.55,150.55c.3.24,4,2.7,4,2.77C135.68,155.18,131,150.48,132.55,150.55Z"/><path d="M94.51,103c-1.06-.07.84-5,1.66-4.92C97.21,98.13,94.94,102.48,94.51,103Z"/><path d="M31.35,96.91a16.42,16.42,0,0,1-2.6-.28c.38-1.55,4.45-.89,5.16,0A7.86,7.86,0,0,1,31.35,96.91Z"/><path d="M231.7,64.66c-1.52-.81-3.34-2.76-5.19-2.77C226.76,61.89,233.14,63.06,231.7,64.66Z"/><path d="M137.5,122.19c-.63-.18-4.19-.54-4.12-1.67,0,.09,5.35.23,5.28,1.64A1.92,1.92,0,0,1,137.5,122.19Z"/><path d="M126.72,98.83c-.65-.28-4.75-1-4.81-1.77S126.65,97.17,126.72,98.83Z"/><path d="M87.16,70.27c-1,1-2-4-1.33-4.27C86.87,65.54,87.12,69.83,87.16,70.27Z"/><path d="M68.12,42.22c.88-1.59,2.32,4.09,1.82,4.21C69.12,46.63,68.05,42.9,68.12,42.22Z"/><path d="M111.83,76.27c-.86-.82,3.38-3.38,4.19-2.55C116.37,74.08,112.12,76.24,111.83,76.27Z"/><path d="M64.73,96.28c-.85.64-4.71-2.74-4.76-2.7C61,92.85,64.61,95.19,64.73,96.28Z"/><path d="M122.39,159.8c.36-.21.64-.17.83.11,0,1.12-3.76,3.75-4.76,3C118.26,162.78,122.46,159.64,122.39,159.8Z"/><path d="M70.41,95.49c.75.12,4,3.28,3.23,4C73.29,99.81,69.68,96.33,70.41,95.49Z"/><path d="M123.06,74.13c0,.63-4.26,3.1-4.82,2.43C117.85,76.09,122.32,73.61,123.06,74.13Z"/><path d="M48.17,87.08c-.45,0-5-1.38-4.44-1.79s4.85,1,5.34,1.5Z"/><path d="M109.42,83.24c-.19.6-3.24,3.69-3.9,3.12S109,82.41,109.42,83.24Z"/><path d="M101.08,29c.85.53-2.15,4.73-3.11,4.1C97.53,32.85,100.7,29.2,101.08,29Z"/><path d="M79.84,118.32c-.57.66-3.07-4.41-2.65-4.88C77.89,112.67,79.82,118.19,79.84,118.32Z"/><path d="M96.75,118.63c-1.15-.68,2.44-3.93,3.51-3.49C100,115,97.49,118.52,96.75,118.63Z"/><path d="M45.65,31.86c.54.68.82,4.43-.18,4.36C44.18,36.13,45,32.15,45.65,31.86Z"/><path d="M79.07,36.54l-.22.64c-.74-.42-1.77-4.12-1-4.64S79.08,36.14,79.07,36.54Z"/><path d="M133.32,94.73c-.32.58-4.68,2.73-4.83,2.1C128.3,96,132.73,94.21,133.32,94.73Z"/><path d="M99.86,16.71c0,.5-2.78,3.68-3.51,3.08C95.37,19,99.61,16.26,99.86,16.71Z"/><path d="M95.66,115.88c-1.08.54,2.5-5,3.25-4.14C99.37,112.29,96.29,115.47,95.66,115.88Z"/><path d="M74.14,114.44c-.32.67-3.74-2.77-3.78-3.17C70.25,110.27,74,113.12,74.14,114.44Z"/><path d="M66.85,43.78c-1.57,1.27-1.95-3.91-1.91-3.9C65.89,40,66.85,43,66.85,43.78Z"/><path d="M96.37,41.66c.1.57-1.32,4.63-2.08,4.34C93.25,45.59,95.76,41,96.37,41.66Z"/><path d="M111.54,30.17c-1.07-.85,2.37-3.41,2.79-2.93S112.17,30.08,111.54,30.17Z"/><path d="M60.44,117.86c-.51,0-4.3-1-4.08-1.27.44-.46,5,.68,4.88,1A1.15,1.15,0,0,1,60.44,117.86Z"/><path d="M112,33.74c-1.32-.81,2.47-3.39,2.55-3.31C115.24,31.2,112.75,33.68,112,33.74Z"/><path d="M126.48,115.6c-.15.67-4.42,3-4.92,2.38S126.46,115.7,126.48,115.6Z"/><path d="M50.58,106.22c-.49.55-2.87-3.7-2.23-4.1C49.32,101.5,50.65,105.81,50.58,106.22Z"/><path d="M100.11,89.11c-.3.66-2.17,4.71-3.07,3.92C96.51,92.57,99.18,88.19,100.11,89.11Z"/><path d="M114.57,85c-.18.91-3.34,3.3-4.11,2.5C109.92,87,114.57,85,114.57,85Z"/><path d="M112.4,16.45c-.14.45-3,3.58-3.46,2.84S111.71,16,112.4,16.45Z"/><path d="M82.84,120.4c-.25.4-2.59-4.23-1.72-4.78S82.88,120.06,82.84,120.4Z"/><path d="M82.05,111.3c-.21,1.17-2.78-3.91-2.11-4.53C80.46,106.3,82,111,82.05,111.3Z"/><path d="M67.54,97.86c.67.31,3.44,4.08,2.63,4.18S66.61,98.21,67.54,97.86Z"/><path d="M123.37,162.7c-.06.84-2,1-2.34.33s2.84-2.42,3.25-2.84C124.56,161.51,123.3,161.71,123.37,162.7Z"/><path d="M14.08,65c-1-1.37,4.39-1.19,5-.81C18.43,65.08,15.16,64.89,14.08,65Z"/><path d="M94.09,95.76a16.56,16.56,0,0,1-1.87,3.72C91.67,98.39,93.56,94.89,94.09,95.76Z"/><path d="M174.19,67.46c-.95-.14-5.23-3.51-4.79-4A10.8,10.8,0,0,1,174.19,67.46Z"/><path d="M116.85,90.77c-.84-.27-2.21.38-2.93-.29-1-1,5.08-.77,4.57.08A1.09,1.09,0,0,1,116.85,90.77Z"/><path d="M86.43,95C83.61,104.39,85.6,94.22,86.43,95Z"/><path d="M139.37,86.71c-.27.55-4.14,1.54-4.2.92C135.1,86.78,138.9,86,139.37,86.71Z"/><path d="M124.46,70.86c3.36.16-2.38,2.63-2.71,1.52C121.61,71.9,124.23,71,124.46,70.86Z"/><path d="M46.28,95.87c.83-.44,3.35,1.77,3.5,2.58C49.81,98.58,44.82,96.64,46.28,95.87Z"/><path d="M89.18,95.77c0,.39-1,4.52-1.77,4.26C86,99.56,88.88,95.94,89.18,95.77Z"/><path d="M105.35,97c-.51.58-2.07,3.34-3.22,2.68C101.86,99.48,105.47,95.29,105.35,97Z"/><path d="M104.66,64.4c-.15.34-3,3-3.48,2.59S103.92,63.61,104.66,64.4Z"/><path d="M93.84,68.93c.06-.14.76-2,1-1.87,1,.66-.61,4.18-1.6,4.12C92.73,71.14,94.14,69.05,93.84,68.93Z"/><path d="M124.34,120.6c-1.34-1.08,3.51-1.82,4.1-1.62C127.72,120,125.47,120.36,124.34,120.6Z"/><path d="M17.38,106.45c-1.28-.84,3.43-2.54,3.55-1.58C21,105.61,17.92,106.27,17.38,106.45Z"/><path d="M113.12,114.34c-.2.76-3.6,2.81-4.34,1.83C108.23,115.45,112.9,114.36,113.12,114.34Z"/><path d="M109.58,66.75c-1.58-.94,3.55-2.19,3.28-1.91A7.83,7.83,0,0,1,109.58,66.75Z"/><path d="M132.37,17.59c1.13.79-2.41,2-3.06,1.56C128.41,18.6,132.3,17.6,132.37,17.59Z"/><path d="M47.58,105.93c-.68.75-2.81-2.12-2.33-2.7S47.53,105.55,47.58,105.93Z"/><path d="M109.25,21.49c-1.12-.48,2.26-2.9,2.9-2.62C112.45,19,109.71,21.37,109.25,21.49Z"/><path d="M91.06,106.55c.15-.62.18-2.79,1-3-.15,0,.37,3.78-.89,4.06Z"/><path d="M86.5,60.05c.47.17,1.69,3.29,1.27,3.81C87.76,63.87,85.54,61.09,86.5,60.05Z"/><path d="M116.82,126.6a1.23,1.23,0,0,1-1.82-.52c.28-.61,3.42-.62,3.41.25A1.29,1.29,0,0,1,116.82,126.6Z"/><path d="M214.19,43c.5,0,4.13.4,3.94,1.2C218,44.72,212.78,43.64,214.19,43Z"/><path d="M73,104.57c.38.19,2.3,2.86,1.4,3.27S72.56,105,73,104.57Z"/><path d="M122.34,100.5a3.36,3.36,0,0,1,2.19.45c-.45-.66-4,1.71-4.32.13C120.09,100.5,122.12,100.52,122.34,100.5Z"/><path d="M115.14,58.52c.16.76-1.67,3.84-2.63,3.57C112,61.94,114.22,58,115.14,58.52Z"/><path d="M169,46.61c-.52.09-.86,0-1-.41.55-.4,3.42-.71,3.89-.16S169.19,46.6,169,46.61Z"/><path d="M88.41,106.81c-.06,1,.23,2.77-.67,3.58-.71-1-.35-4.42.27-5.37A2.33,2.33,0,0,1,88.41,106.81Z"/><path d="M123.73,105a4.18,4.18,0,0,1,1.72.21c-.44.64-3.22,1.24-3.48.1C121.92,105.05,123.6,105,123.73,105Z"/><path d="M81.45,102.4c-.66,1-2-3.12-.94-3.41C81.19,98.8,81.44,102,81.45,102.4Z"/><path d="M59,119.52c-.35-.07-2.74-.36-2.7-1.18C56.34,117.14,60.6,119.43,59,119.52Z"/><path d="M163.06,73.72a8.44,8.44,0,0,1,3.29,4C165.91,77.16,162.18,74.54,163.06,73.72Z"/><path d="M45.19,79.75c.36.07,2.61.24,2.59.75,0,.84-3.54,0-3.49-.15Z"/><path d="M120.33,3.36c.28-.4,3.73-3.37,3.6-1.66A13,13,0,0,1,120.33,3.36Z"/><path d="M69,159.24c.25,0,3.09,2.36,2.69,2.75C70.53,163.15,69.14,159.29,69,159.24Z"/><path d="M4.24,90.39a14.52,14.52,0,0,1,3.8-3A7,7,0,0,1,4.24,90.39Z"/><path d="M79.06,103.13c-.59,1.2-2.21-2.39-1.38-2.77S79,102.82,79.06,103.13Z"/><path d="M53.86,84.64a2.35,2.35,0,0,1-1.5-.2c-.24-1.86,3.64.15,3.89,0C55.68,84.82,54.51,84.61,53.86,84.64Z"/><path d="M52.82,131.77c-.32.54-3.25,1.37-3.06.86S52.39,131.47,52.82,131.77Z"/><path d="M34.58,131c-.21.42-3.27,2.6-3.59,2.18C30.44,132.5,34.3,131,34.58,131Z"/><path d="M58.47,163.15a4.13,4.13,0,0,1-.81-3.27A5.09,5.09,0,0,1,58.47,163.15Z"/><path d="M118.56,65.08c-.84-.57,2-1.69,2.66-1.21C121.6,64.15,118.76,65.07,118.56,65.08Z"/><path d="M138.62,24.72c-.14.39-2,1.3-2.15.51S138.22,24.09,138.62,24.72Z"/><path d="M128.73,158.35c-1,.05-2.42-1.87-3-2.45A5.32,5.32,0,0,1,128.73,158.35Z"/><path d="M160.53,70.9c.55.36,3,2.37,2.31,3A6.78,6.78,0,0,1,160.53,70.9Z"/><path d="M56.13,161.54c.41.14.83,1.69.72,2.09A1.46,1.46,0,0,1,56.13,161.54Z"/><path d="M58.87,161.07c.66-.79,1,2.21,1.09,2.2C59.06,163.31,58.79,161.68,58.87,161.07Z"/><path d="M196.65,45.49c1.13-.12,2.54.84,3.38,1.53A6.34,6.34,0,0,1,196.65,45.49Z"/><path d="M66.64,159.88c.62-.09,1.29,1.28,1.58,1.63C67.83,161.05,66.65,161.28,66.64,159.88Z"/><path d="M154.18,11.82c.44-.87,2.59-1.12,3.43-1A6.14,6.14,0,0,1,154.18,11.82Z"/><path d="M71.74,25.81c.13.56-.07.84-.61.86-.41-.21-.44-2,.23-2Z"/><path d="M25.09,59c0,1-1.55.35-.16-.84A1.09,1.09,0,0,1,25.09,59Z"/><path d="M4.71,79.6c.42-.52,1.64-1.63,2.41-1.23C7.56,78.6,4.92,79.58,4.71,79.6Z"/><path d="M169.18,63.71a9.83,9.83,0,0,1-2.46-2C167.53,60.72,169.77,63,169.18,63.71Z"/><path d="M8.51,71.73a1.53,1.53,0,0,1-1.39-.11C7.4,71.4,8.4,71.35,8.51,71.73Z"/><path d="M78.86,11.69a1.53,1.53,0,0,1,1-1.54A1.29,1.29,0,0,1,78.86,11.69Z"/><path d="M141.83,92.19c-.08.74-1.57.21-1.47,0C140.58,91.75,141.55,91.85,141.83,92.19Z"/><path d="M54.5,162.68l.27-1C56.6,163,54.84,162.76,54.5,162.68Z"/><path d="M200.66,101.06c.21,0,1.32.64,1.23,1C201.83,102.34,200,101.79,200.66,101.06Z"/><path d="M233.29,73.31A3.37,3.37,0,0,1,231.21,72C231.89,71.23,233,72.78,233.29,73.31Z"/><path d="M200.59,149.48c.88,0,1.39.29,1.52.91C201.85,151.33,200.59,149.49,200.59,149.48Z"/><path d="M204,25.44c-.67,1-1.68.84-2.44,0C202.19,25.46,203.44,25.41,204,25.44Z"/><path d="M99.35,7.77c.12-.13,1.72-1.74,2.13-1.28C101.21,7,99.94,8.36,99.35,7.77Z"/><path d="M133,11.2a1.34,1.34,0,0,1-.45,1.06C132.27,12.29,133,11.13,133,11.2Z"/><path d="M233.25,65l-.17.81a1.83,1.83,0,0,1-1.38-1.16A1.42,1.42,0,0,1,233.25,65Z"/><path d="M12.82,49.7c-.27.14-.43.1-.48-.11C12.55,49.52,12.74,49.46,12.82,49.7Z"/><path d="M58.43,163.18c.08,0,1,1.27.42,1.26C58.53,164.44,58.44,163.24,58.43,163.18Z"/><path d="M182.11,17.43a.62.62,0,0,1-.8.16C181.11,17.4,181.94,17.23,182.11,17.43Z"/><path d="M71.67,17.65c-.75-.25-.72-.54,0-1A6.43,6.43,0,0,0,71.67,17.65Z"/><path d="M78.53,12.85c-.06.72-.31,1-.75.94C77.61,13.54,78.47,12.93,78.53,12.85Z"/><path d="M92.6,11.28c.05.68-.18,1-.71.88C91.78,12,92.58,11.31,92.6,11.28Z"/><path d="M133.05,11.23a1.47,1.47,0,0,1,.88-.41C133.77,11.23,133.24,11.16,133.05,11.23Z"/><path d="M248,88.45a1.53,1.53,0,0,1,.93,1.49C248.13,89.55,248.24,89.11,248,88.45Z"/><path d="M214.71,102.16a2.71,2.71,0,0,1,1.51.86C215.22,103.15,215.21,102.64,214.71,102.16Z"/><path d="M34.87,136.19a1.21,1.21,0,0,1,1-.52C35.72,136.19,35.3,136.67,34.87,136.19Z"/><path d="M7.66,95.32a.69.69,0,0,1,.8-.51C8.41,95.28,7.86,95.21,7.66,95.32Z"/><path d="M223,151a1.47,1.47,0,0,1-1.54-.88C222,149.51,222.88,150.65,223,151Z"/><path d="M166.9,114.82c-.35.07-1-.75-.6-.85S166.83,114.74,166.9,114.82Z"/><path d="M130.7,59.63c0-.17.6-1.12.94-.74C132.17,59.49,130.69,59.63,130.7,59.63Z"/><path d="M99,8.41a1.7,1.7,0,0,1-.85,1.11C97.44,8.83,98.53,8.43,99,8.41Z"/><path d="M171.31,174.46a.74.74,0,0,1-.75.14C170.74,174.43,171.22,174.47,171.31,174.46Z"/><path d="M152.71,12.3a1.17,1.17,0,0,1,1.47-.48C154.8,12.26,152.27,12.38,152.71,12.3Z"/><path d="M198.13,24a3.34,3.34,0,0,1-1.5-.43A5.79,5.79,0,0,1,198.13,24Z"/><path d="M43.79,73.34c.67-.62,1-.15,1,.51C44.33,73.9,44.13,73.65,43.79,73.34Z"/><path d="M200.58,24.94a2.76,2.76,0,0,1-1.51-.42A3,3,0,0,1,200.58,24.94Z"/><path d="M129.79,158.76l1.5.1C132.12,159.5,128.86,158.64,129.79,158.76Z"/><path d="M154.77,112.28a.65.65,0,0,1,.53.82C154.84,113.08,154.36,112.68,154.77,112.28Z"/><path d="M23.15,128.38c.21-.42.49-.51.83-.29C24.14,128.56,23.37,128.62,23.15,128.38Z"/><path d="M210.29,150a.61.61,0,0,1,.87.27C210.6,150.47,210.67,150.17,210.29,150Z"/><path d="M187.93,36.13c.66.07.89.35.67.83C188.12,36.84,188,36.23,187.93,36.13Z"/><path d="M8,87.4a.8.8,0,0,1,.8-.21C9,87.56,7.92,87.42,8,87.4Z"/><path d="M54.11,159.43C54.35,158.49,54.15,159.26,54.11,159.43Z"/><path d="M14.76,50.06C14.8,50.5,14.34,50,14.76,50.06Z"/><path d="M217.32,78.06a.83.83,0,0,1,.5.9C217.2,78.93,216.82,78.52,217.32,78.06Z"/><path d="M128.3,81.13a2.24,2.24,0,0,1,.44-1.45A2.34,2.34,0,0,1,128.3,81.13Z"/><path d="M203.09,119.12a1.2,1.2,0,0,1,.43.76C203.12,120.16,203.07,119.07,203.09,119.12Z"/><path d="M120.83,78.58c.21-.36.46-.46.73-.29C122,78.9,120.69,78.61,120.83,78.58Z"/><path d="M130.67,87c.15-.24,1-.86,1-1C131.51,87.06,131.27,86.65,130.67,87Z"/><path d="M17.82,45C17.42,44.74,17.79,45,17.82,45Z"/><path d="M18.78,45.55c-.37-.57-.7-.72-1-.47A3.06,3.06,0,0,1,18.78,45.55Z"/><path d="M147.36,45.52l1-.49a.73.73,0,0,0,0,.44C147.63,45,147.31,45.05,147.36,45.52Z"/><path d="M19.8,46c-.39-.55-.74-.7-1.07-.45A2.63,2.63,0,0,1,19.8,46Z"/><path d="M126.7,45.88C127.27,45.6,126.87,45.83,126.7,45.88Z"/><path d="M146.37,46a.91.91,0,0,1,1-.47A4.2,4.2,0,0,1,146.37,46Z"/><path d="M115.14,48.89C115.63,48.16,115.13,48.9,115.14,48.89Z"/><path d="M41.37,49.36a.38.38,0,0,1,.18.47C41.39,49.72,41.39,49.42,41.37,49.36Z"/><path d="M171.65,59.27c-.33,0-.45-.17-.36-.41C171.85,58.89,172,59,171.65,59.27Z"/><path d="M98.39,65.88a1,1,0,0,1-.46,1C98.52,66.49,98.68,66.16,98.39,65.88Z"/><path d="M97.89,66.84a1.45,1.45,0,0,1-.51,1C98,67.46,98.16,67.13,97.89,66.84Z"/><path d="M97.43,67.78C97.34,67.83,97.46,68.32,97.43,67.78Z"/><path d="M213.26,68a1,1,0,0,1,1,.48C213.26,68.63,213.81,68.24,213.26,68Z"/><path d="M214.2,68.47C215,68.74,214.29,68.53,214.2,68.47Z"/><path d="M8.55,73.24A1.32,1.32,0,0,1,9.74,73C9.9,73.1,8.31,73.3,8.55,73.24Z"/><path d="M66.22,75.81a.54.54,0,0,1,.65.14C66.75,76.54,66.22,75.81,66.22,75.81Z"/><path d="M128.79,79.71c.58-.45.72-.81.41-1.09C129.12,79.33,129,79.24,128.79,79.71Z"/><path d="M128.25,81.09C128,82,128.2,81.19,128.25,81.09Z"/><path d="M5.77,84.14a1.24,1.24,0,0,1-1.06.4C5.11,84,5.34,84.3,5.77,84.14Z"/><path d="M3.7,85a1.29,1.29,0,0,1,1-.39C5.17,84.87,3.34,85.11,3.7,85Z"/><path d="M188.26,84.67a.75.75,0,0,1,.62.12C188.89,84.87,188.25,84.67,188.26,84.67Z"/><path d="M144,87.1a1.43,1.43,0,0,1,.26-1.16C144.47,86.5,144.12,86.71,144,87.1Z"/><path d="M132.09,90.32c.06-.15.75-.56.7-.18C132.7,90.69,132.28,90.53,132.09,90.32Z"/><path d="M232.36,93.3a.93.93,0,0,1,.38,1C232.23,94,232.44,93.56,232.36,93.3Z"/><path d="M86.12,94.69c0-.33.23-.47.54-.4C86.52,94.27,86.86,95.34,86.12,94.69Z"/><path d="M7.62,95.27c0,.39-.14.49-.47.29C7.26,95.38,7.57,95.31,7.62,95.27Z"/><path d="M144.35,103.64a1.24,1.24,0,0,1,1,.47A3.44,3.44,0,0,1,144.35,103.64Z"/><path d="M217.67,104a2,2,0,0,1-1-.32C217.14,104.19,217.47,104.3,217.67,104Z"/><path d="M218.18,104.62C218.88,105.13,218.19,104.63,218.18,104.62Z"/><path d="M160.5,107.51c.28.08.39.23.34.47C160.56,108.32,160.44,107.42,160.5,107.51Z"/><path d="M232.33,107.52c.16.14,0-.06,0,0Z"/><path d="M35.46,130.47c-.1.33-.71.72-1,.45C34.74,130.45,35.24,130.6,35.46,130.47Z"/><path d="M181,132.92a.72.72,0,0,1,0-1C180.7,132.77,180.71,133.11,181,132.92Z"/><path d="M230.83,132.42a.72.72,0,0,1,.48,1C230.63,133.12,231.11,133,230.83,132.42Z"/><path d="M231.31,133.39a.42.42,0,0,1,.31.46C231.53,133.91,231.27,133.33,231.31,133.39Z"/><path d="M159.64,145.52C158.81,145.37,159.57,145.51,159.64,145.52Z"/><path d="M245.45,149.5c.66.81.05.4.05,1C245.81,149.66,245.8,149.32,245.45,149.5Z"/><path d="M129.83,158.71a.83.83,0,0,1-1.1-.36C129.07,157.94,129.65,158.65,129.83,158.71Z"/><path d="M66.69,159.84C66.24,158.91,66.68,159.82,66.69,159.84Z"/><path d="M241.05,161.27C241.7,161.43,241.39,161.43,241.05,161.27Z"/><path d="M78.82,11.65a5.78,5.78,0,0,1-.24,1.25C78.4,12.41,78.69,12,78.82,11.65Z"/><path d="M73.17,13.78C72.88,14.07,73.1,13.84,73.17,13.78Z"/><path d="M48.65,18.12a.37.37,0,0,1-.22-.52C48.5,17.49,48.69,18.23,48.65,18.12Z"/><path d="M70.36,19C70.74,19.21,70.16,19.34,70.36,19Z"/><path d="M199.11,24.48a1.45,1.45,0,0,1-1-.45C198.91,24.07,198.64,24.25,199.11,24.48Z"/><path d="M201.58,25.45a.94.94,0,0,1-1-.51Z"/><path d="M69.79,155.27C69.5,155.43,69.73,155.3,69.79,155.27Z"/><path d="M208.37,153.45c.06.5.24.65.53.45C208.4,153.8,208.12,154,208.37,153.45Z"/><path d="M207.9,152.92c0,.51.2.67.5.47C208.1,153.33,207.47,153.6,207.9,152.92Z"/><path d="M187.86,152.85C187.89,153.19,187.87,152.92,187.86,152.85Z"/><path d="M207.36,152.93c.28.15.46.14.55,0C207.45,152.75,207.27,152.76,207.36,152.93Z"/><path d="M187.87,152.9C187.79,152.72,187.87,152.69,187.87,152.9Z"/><path d="M205.83,152.54C206,152.18,205.77,152.7,205.83,152.54Z"/><path d="M240,152c-.29-.13-.34-.27-.16-.44C240.27,151.71,240.32,151.86,240,152Z"/><path d="M223,151C223.23,151,223.28,151.35,223,151Z"/><path d="M192.73,147.08C192.9,147.12,193,147.05,192.73,147.08Z"/><path d="M137.9,147.22a.31.31,0,0,1-.18-.46C138,146.5,138.23,146.89,137.9,147.22Z"/><path d="M247.91,146.11C247.39,145.84,247.68,145.86,247.91,146.11Z"/><path d="M202.49,142.2C202.35,142.2,202.25,141.74,202.49,142.2Z"/><path d="M143.56,142.09C143.24,142.06,143.5,142.09,143.56,142.09Z"/><path d="M175.63,141.75C175.48,141.55,175.71,141.87,175.63,141.75Z"/><path d="M184,140.66C184.08,140.77,184,140.63,184,140.66Z"/><path d="M212.66,140.35Z"/><path d="M157.58,134.89l0,0Z"/><path d="M157.63,134.85l-.5-.55C157,134.48,157.61,134.83,157.63,134.85Z"/><path d="M176.6,132.44C176.46,132.44,176.34,131.91,176.6,132.44Z"/><path d="M181,131C180.93,130.9,181,131,181,131Z"/><path d="M173.21,131c.13-.47.31-.5.56-.1C173.59,131,173.26,131,173.21,131Z"/><path d="M35.5,130.52C35.6,130.19,35.5,130.47,35.5,130.52Z"/><path d="M178.1,129c-.22.29-.37.24-.53.05C178.07,129.17,178.25,129.15,178.1,129Z"/><path d="M177.61,129c-.18-.5-.36-.65-.52-.45C177.85,128.09,177.55,128.89,177.61,129Z"/><path d="M159.54,128.51C159,128.15,159.34,128.27,159.54,128.51Z"/><path d="M70.77,123.51c.25.09.32.25.21.47C70.71,124.25,70.5,123.79,70.77,123.51Z"/><path d="M151.21,122.67C151.64,122.91,151.24,122.68,151.21,122.67Z"/><path d="M167.32,120.74C167.11,120.5,167.18,120.65,167.32,120.74Z"/><path d="M172.68,114.82Z"/><path d="M248.39,114.38C248.51,114.34,248.75,114.65,248.39,114.38Z"/><path d="M248.43,114.34c-.61-.16-.74-.37-.37-.61C248.46,113.94,248.32,114.18,248.43,114.34Z"/><path d="M149.75,113.86C150,114.11,149.72,113.84,149.75,113.86Z"/><path d="M113.16,114.38C113.13,114.24,113.44,114.05,113.16,114.38Z"/><path d="M10,112.75c.22-.31.38-.34.48-.08C10.3,113.06,10.14,113.09,10,112.75Z"/><path d="M156.47,109.11c-.28-.17-.33-.34-.15-.52C156.8,108.72,156.85,108.89,156.47,109.11Z"/><path d="M232.38,107.48c-.22-.51-.42-.65-.6-.44C232,107.55,232.18,107.69,232.38,107.48Z"/><path d="M218.23,104.59l-.56-.61C217.66,104.18,218.15,104.51,218.23,104.59Z"/><path d="M145.28,104.15C145.72,104.18,145.35,104.15,145.28,104.15Z"/><path d="M191.74,104.13l0,0Z"/><path d="M236.05,103.77c-.56-.26-.63-.52-.22-.77C236.44,103.24,236.52,103.5,236.05,103.77Z"/><path d="M216.18,103.07l.49.59Z"/><path d="M150.8,103.09C151,103.36,150.92,103.18,150.8,103.09Z"/><path d="M235.58,103.26c-.36-.24-.39-.41-.1-.51C235.91,102.88,235.94,103.05,235.58,103.26Z"/><path d="M150.26,102.59c.19.51.39.67.59.46C150.64,102.52,150.44,102.36,150.26,102.59Z"/><path d="M207,102.06Z"/><path d="M126.69,98.87Z"/><path d="M231.81,98.32Z"/><path d="M231.85,98.27l-.48-.5A2.3,2.3,0,0,0,231.85,98.27Z"/><path d="M231.37,97.77l-.48-.63C230.82,97.32,231.35,97.74,231.37,97.77Z"/><path d="M89.23,95.82C89.25,95.57,89.24,95.79,89.23,95.82Z"/><path d="M80.88,95.32C81.21,95.46,80.87,95.31,80.88,95.32Z"/><path d="M232.74,94.33l0,0Z"/><path d="M161,93.84C161.15,93.85,161.28,94.34,161,93.84Z"/><path d="M165.38,92.39C165.56,92.4,165.64,92.76,165.38,92.39Z"/><path d="M165.41,92.36c-.34,0-.5-.15-.49-.49C165.13,91.64,165.43,92.38,165.41,92.36Z"/><path d="M3.21,91.4C3.22,91.56,3.22,91.46,3.21,91.4Z"/><path d="M3.66,90.88c0,.39-.35.4-.4.57C3.74,91.23,3.87,91,3.66,90.88Z"/><path d="M3.7,90.92c.53-.18.7-.37.5-.58C3.63,90.55,3.47,90.74,3.7,90.92Z"/><path d="M248.88,89.94C249.42,90.42,248.86,89.92,248.88,89.94Z"/><path d="M148.7,88.39Z"/><path d="M142.36,88.47l0,0Z"/><path d="M99.8,88.8c.11-.13.79-.3.53.11S100,89.18,99.8,88.8Z"/><path d="M142.83,88l-.47.51A5.34,5.34,0,0,0,142.83,88Z"/><path d="M143.4,87.52l-.57.44C143,88,143.34,87.56,143.4,87.52Z"/><path d="M143.44,87.56c0-.22.48-.56.54-.51Q143.13,87.26,143.44,87.56Z"/><path d="M144.87,85.52a.43.43,0,0,1-.58.42C144.22,85.88,144.91,85.48,144.87,85.52Z"/><path d="M115.55,163.11Z"/><path d="M3.22,85.52C3.25,85.66,3,85.86,3.22,85.52Z"/><path d="M3.65,84.93a.62.62,0,0,1-.39.63Q4,85.22,3.65,84.93Z"/><path d="M110.55,163.56c.28-.57.53-.65.76-.23C111.07,163.81,110.82,163.89,110.55,163.56Z"/><path d="M114.61,85.08C115.05,84.56,114.58,85.11,114.61,85.08Z"/><path d="M40.84,84.59C41,84.57,41.19,84.91,40.84,84.59Z"/><path d="M188.31,84.62a.56.56,0,0,1-.4-.62C188,83.88,188.38,84.72,188.31,84.62Z"/><path d="M40.88,84.56l-.5-.51C40.58,84.12,40.77,84.44,40.88,84.56Z"/><path d="M222.52,83.14c.13-.14.48-.27.54,0C222.58,82.93,222.39,82.94,222.52,83.14Z"/><path d="M4.12,80.15Z"/><path d="M4.69,79.55l-.57.6C4.31,80.12,4.58,79.67,4.69,79.55Z"/><path d="M40.85,79.21C41.52,79.56,41,79.36,40.85,79.21Z"/><path d="M123.85,162.19l-.44.55C123.5,162.36,123.43,161.88,123.85,162.19Z"/><path d="M235.83,79.15Z"/><path d="M167.45,78.6c.3.14.36.29.17.47C167.25,78.91,167.2,78.75,167.45,78.6Z"/><path d="M40.36,78.72l.49.49C40.66,79.47,40.31,78.67,40.36,78.72Z"/><path d="M166.84,78.24l.61.36C167,79,167,78.34,166.84,78.24Z"/><path d="M39.9,78.2l.46.52Z"/><path d="M166.88,78.2l-.5-.5C166.3,77.64,167,78.26,166.88,78.2Z"/><path d="M39.52,77.6c.43.24.54.46.34.64C39.23,78.06,39.12,77.85,39.52,77.6Z"/><path d="M234.24,74.33C234.5,74.26,234.67,74.66,234.24,74.33Z"/><path d="M124.34,161.71l-.44.52C124,161.86,123.92,161.4,124.34,161.71Z"/><path d="M234.27,74.29c-.17-.5-.35-.65-.53-.45C233.92,74.34,234.1,74.49,234.27,74.29Z"/><path d="M233.26,73.34c.17.51.35.66.52.46C233.61,73.3,233.43,73.15,233.26,73.34Z"/><path d="M8.51,73.19C8.51,73.93,8.5,73.29,8.51,73.19Z"/><path d="M64.27,71.41Z"/><path d="M36.61,71.23l.5.48C36.71,72.1,36.22,71.63,36.61,71.23Z"/><path d="M124.34,161.24c.38.29.31.37,0,.51C124.55,161.27,124.53,161.1,124.34,161.24Z"/><path d="M63.79,70.91l.48.5C64.33,71.23,63.85,71,63.79,70.91Z"/><path d="M160.57,70.87l0,0Z"/><path d="M176.64,69.4a.57.57,0,0,0-.53,0C176.56,69.61,176.73,69.6,176.64,69.4Z"/><path d="M176.17,69.41c-.13-.43-.31-.58-.53-.45C176.62,69,175.82,68.8,176.17,69.41Z"/><path d="M175.69,68.93c-.16-.52-.34-.67-.55-.47C175.27,68.9,175.46,69.06,175.69,68.93Z"/><path d="M175.2,68.41c-.18-.47-.37-.62-.55-.43C174.82,68.46,175,68.61,175.2,68.41Z"/><path d="M174.69,68l-.5-.49C174.1,67.56,174.69,68,174.69,68Z"/><path d="M123.9,65.05C123.9,65.21,123.41,65.3,123.9,65.05Z"/><path d="M129.19,160.68c.13-.37.29-.4.46-.08C129.48,160.9,129.33,160.93,129.19,160.68Z"/><path d="M233.73,61.14C233.91,61.12,234.05,61.43,233.73,61.14Z"/><path d="M196.64,160.27C196.38,160.1,196.51,160.22,196.64,160.27Z"/><path d="M161.94,55.29C162.41,55.35,162,55.29,161.94,55.29Z"/><path d="M141,55.78l0,0Z"/><path d="M124.28,160.19C124.54,160.27,124.13,160.15,124.28,160.19Z"/><path d="M166.84,49.42C167.05,49.34,167.25,49.73,166.84,49.42Z"/><path d="M114.55,49.41l.59-.52C115.25,48.67,114.4,49.56,114.55,49.41Z"/><path d="M200,47C200.23,47.17,200.05,47,200,47Z"/><path d="M145.88,46.5a.49.49,0,0,1,.49-.51A4.85,4.85,0,0,1,145.88,46.5Z"/><path d="M19.76,46C20,46.1,19.81,46,19.76,46Z"/><path d="M148.32,45c-.15-.82.56,0,.5-.05C148.32,44.84,148.16,44.86,148.32,45Z"/><path d="M30.6,42.48l0,.05Z"/><path d="M30.62,42.53C30.51,42.33,30.53,42.4,30.62,42.53Z"/><path d="M34.05,38.21C34.23,38.23,34.09,38.21,34.05,38.21Z"/><path d="M34.1,38.17a4.22,4.22,0,0,1-.54-.58C33.7,38.19,33.88,38.39,34.1,38.17Z"/><path d="M33.6,37.63C33.37,37.51,33.55,37.61,33.6,37.63Z"/><path d="M205.9,36.73C206,36.69,206.25,37,205.9,36.73Z"/><path d="M178.56,28.4C178.84,28.54,178.55,28.39,178.56,28.4Z"/><path d="M94.6,24.52c-.14-.51-.3-.67-.49-.49C94.27,24.56,94.44,24.72,94.6,24.52Z"/><path d="M94.14,24l0,0Z"/><path d="M88.26,23C87.89,22.85,88.22,23,88.26,23Z"/><path d="M42.36,21.12Z"/><path d="M41.84,20.64c.17.47.36.62.56.45C41.81,20.59,41.62,20.44,41.84,20.64Z"/><path d="M41.81,20.61C41.7,20.37,41.87,20.75,41.81,20.61Z"/><path d="M143,19.68C142.94,19.88,142.51,19.75,143,19.68Z"/><path d="M48.61,18.15l0,0Z"/><path d="M77.07,15.31C77,15.45,77.05,15.34,77.07,15.31Z"/><path d="M77.07,15.36C77,15.05,77.06,15.3,77.07,15.36Z"/><path d="M97.51,13.77C97.56,13.63,97.52,13.75,97.51,13.77Z"/><path d="M133.66,158.32c.51-.17.66-.34.46-.52C133.63,158,133.47,158.15,133.66,158.32Z"/><path d="M73.12,13.81C73.25,13.58,73.15,13.77,73.12,13.81Z"/><path d="M93.1,10.8c0,.34-.16.5-.5.48C92.66,11.11,93,10.91,93.1,10.8Z"/><path d="M87.34,10.82C87.09,10.74,87.29,10.81,87.34,10.82Z"/><path d="M87.29,10.85C87.45,10.74,87.49,10.81,87.29,10.85Z"/><path d="M88.34,9.36C88.08,9.29,88.28,9.36,88.34,9.36Z"/><path d="M88.29,9.4C88.38,9.15,88.3,9.35,88.29,9.4Z"/><path d="M99.6,8c-.27.45-.51.54-.72.26C99.11,7.69,99.35,7.61,99.6,8Z"/><path d="M120.48,158.33l.48-.48A2.19,2.19,0,0,0,120.48,158.33Z"/><path d="M119.35,4.34c.25-.59.5-.66.75-.23C119.85,4.69,119.6,4.76,119.35,4.34Z"/><path d="M119.83,3.84c.26-.57.52-.64.76-.22C120.34,4.2,120.09,4.28,119.83,3.84Z"/><path d="M121,157.85C121.39,157.3,120.94,157.88,121,157.85Z"/><path d="M125.74,155.9Z"/><path d="M199.12,167.08C198.84,167,199,167,199.12,167.08Z"/><path d="M33,74.77c.71-.19.89.16.53,1A1,1,0,0,1,33,74.77Z"/><path d="M34.05,75.75v1C33.21,75.93,33.21,75.58,34.05,75.75Z"/><path d="M34,76.72c.69-.17.87.17.53,1C33.84,77.92,33.66,77.58,34,76.72Z"/><path d="M35.38,78.32l.13.9C34.59,79.21,34.85,78.41,35.38,78.32Z"/><path d="M34.48,77.7l.55.54Z"/><path d="M35.46,79.17a.81.81,0,0,1,.54.54Z"/><path d="M55.14,58.09C54.87,58.24,55.08,58.12,55.14,58.09Z"/><path d="M146.9,47C146.89,46.55,146.89,47,146.9,47Z"/></g></g></svg>